<svg xmlns="http://www.w3.org/2000/svg" width="24" height="24" viewBox="0 0 24 24" fill="none">
  <!-- Table outline -->
  <rect x="2" y="3" width="20" height="18" rx="2" stroke="currentColor" stroke-width="1.5" stroke-linecap="round"/>
  <!-- Header row fill -->
  <rect x="2" y="3" width="20" height="4" rx="2" fill="currentColor" opacity="0.15"/>
  <!-- Header bottom line -->
  <line x1="2" y1="7" x2="22" y2="7" stroke="currentColor" stroke-width="1" opacity="0.5"/>
  <!-- Lock icon in header -->
  <rect x="9.5" y="4.5" width="3" height="2.2" rx="0.5" stroke="currentColor" stroke-width="0.7" fill="none" opacity="0.9"/>
  <path d="M10.3,4.5 L10.3,3.8 Q10.3,3.2 11,3.2 Q11.7,3.2 11.7,3.8 L11.7,4.5" stroke="currentColor" stroke-width="0.7" stroke-linecap="round" fill="none" opacity="0.9"/>
  <!-- Row separators -->
  <line x1="7" y1="12" x2="21" y2="12" stroke="currentColor" stroke-width="0.5" opacity="0.15"/>
  <line x1="7" y1="16.5" x2="21" y2="16.5" stroke="currentColor" stroke-width="0.5" opacity="0.15"/>
  <!-- Timeline dots along left side -->
  <circle cx="5" cy="10" r="1.2" fill="currentColor" opacity="1"/>
  <circle cx="5" cy="14.5" r="1.2" fill="currentColor" opacity="0.5"/>
  <circle cx="5" cy="19" r="1.2" fill="currentColor" opacity="0.3"/>
  <!-- Connecting lines between dots -->
  <line x1="5" y1="11.2" x2="5" y2="13.3" stroke="currentColor" stroke-width="0.8" stroke-linecap="round" opacity="0.3"/>
  <line x1="5" y1="15.7" x2="5" y2="17.8" stroke="currentColor" stroke-width="0.8" stroke-linecap="round" opacity="0.2"/>
  <!-- Row 1 data -->
  <line x1="8" y1="10" x2="14" y2="10" stroke="currentColor" stroke-width="1" stroke-linecap="round" opacity="0.5"/>
  <line x1="16" y1="10" x2="20" y2="10" stroke="currentColor" stroke-width="1" stroke-linecap="round" opacity="0.3"/>
  <!-- Row 2 data -->
  <line x1="8" y1="14.5" x2="13" y2="14.5" stroke="currentColor" stroke-width="1" stroke-linecap="round" opacity="0.5"/>
  <line x1="16" y1="14.5" x2="20" y2="14.5" stroke="currentColor" stroke-width="1" stroke-linecap="round" opacity="0.3"/>
  <!-- Row 3 data -->
  <line x1="8" y1="19" x2="12.5" y2="19" stroke="currentColor" stroke-width="1" stroke-linecap="round" opacity="0.3"/>
  <line x1="16" y1="19" x2="19" y2="19" stroke="currentColor" stroke-width="1" stroke-linecap="round" opacity="0.3"/>
</svg>
