<svg xmlns="http://www.w3.org/2000/svg" width="24" height="24" viewBox="0 0 24 24" fill="none">
  <!-- Ticket shape with notches -->
  <path d="M3 7a2 2 0 0 1 2-2h14a2 2 0 0 1 2 2v2.5a1.5 1.5 0 1 0 0 3V17a2 2 0 0 1-2 2H5a2 2 0 0 1-2-2v-4.5a1.5 1.5 0 1 0 0-3V7Z" stroke="currentColor" stroke-width="1.5" stroke-linecap="round" stroke-linejoin="round"/>
  <!-- Dashed vertical divider -->
  <line x1="14" y1="6" x2="14" y2="8" stroke="currentColor" stroke-width="1" stroke-linecap="round" opacity="0.3"/>
  <line x1="14" y1="10" x2="14" y2="12" stroke="currentColor" stroke-width="1" stroke-linecap="round" opacity="0.3"/>
  <line x1="14" y1="14" x2="14" y2="16" stroke="currentColor" stroke-width="1" stroke-linecap="round" opacity="0.3"/>
  <line x1="14" y1="17" x2="14" y2="18" stroke="currentColor" stroke-width="1" stroke-linecap="round" opacity="0.3"/>
  <!-- Percentage symbol on left -->
  <circle cx="7.5" cy="10" r="1" stroke="currentColor" stroke-width="1" opacity="0.8"/>
  <circle cx="10" cy="14" r="1" stroke="currentColor" stroke-width="1" opacity="0.8"/>
  <line x1="10" y1="9.5" x2="7.5" y2="14.5" stroke="currentColor" stroke-width="1" stroke-linecap="round"/>
  <!-- Horizontal lines on right -->
  <line x1="16" y1="9.5" x2="19" y2="9.5" stroke="currentColor" stroke-width="1" stroke-linecap="round" opacity="0.5"/>
  <line x1="16" y1="12" x2="19" y2="12" stroke="currentColor" stroke-width="1" stroke-linecap="round" opacity="0.5"/>
  <line x1="16" y1="14.5" x2="18" y2="14.5" stroke="currentColor" stroke-width="1" stroke-linecap="round" opacity="0.3"/>
</svg>
