<svg xmlns="http://www.w3.org/2000/svg" width="24" height="24" viewBox="0 0 24 24" fill="none">
  <!-- Table outline -->
  <rect x="2" y="3" width="20" height="18" rx="2" stroke="currentColor" stroke-width="1.5" stroke-linecap="round"/>
  <!-- Header row fill -->
  <rect x="2" y="3" width="20" height="4" rx="2" fill="currentColor" opacity="0.15"/>
  <!-- Header bottom line -->
  <line x1="2" y1="7" x2="22" y2="7" stroke="currentColor" stroke-width="1" opacity="0.5"/>
  <!-- Swap arrows in header -->
  <line x1="9" y1="4.5" x2="13" y2="4.5" stroke="currentColor" stroke-width="1" stroke-linecap="round" opacity="0.8"/>
  <polyline points="12,3.5 13,4.5 12,5.5" stroke="currentColor" stroke-width="0.8" stroke-linecap="round" stroke-linejoin="round" fill="none" opacity="0.8"/>
  <line x1="13" y1="5.8" x2="9" y2="5.8" stroke="currentColor" stroke-width="1" stroke-linecap="round" opacity="0.8"/>
  <polyline points="10,4.8 9,5.8 10,6.8" stroke="currentColor" stroke-width="0.8" stroke-linecap="round" stroke-linejoin="round" fill="none" opacity="0.8"/>
  <!-- Row separators -->
  <line x1="3" y1="12" x2="21" y2="12" stroke="currentColor" stroke-width="0.5" opacity="0.15"/>
  <line x1="3" y1="16.5" x2="21" y2="16.5" stroke="currentColor" stroke-width="0.5" opacity="0.15"/>
  <!-- Row 1: currency pair pattern -->
  <text x="4" y="10.5" font-size="3.2" font-family="sans-serif" font-weight="bold" fill="currentColor" opacity="0.9">EUR/USD</text>
  <line x1="16" y1="10" x2="20.5" y2="10" stroke="currentColor" stroke-width="1" stroke-linecap="round" opacity="0.5"/>
  <!-- Row 2: currency pair pattern -->
  <text x="4" y="15" font-size="3.2" font-family="sans-serif" font-weight="bold" fill="currentColor" opacity="0.7">GBP/JPY</text>
  <line x1="16" y1="14.5" x2="20.5" y2="14.5" stroke="currentColor" stroke-width="1" stroke-linecap="round" opacity="0.5"/>
  <!-- Row 3: currency pair pattern -->
  <text x="4" y="19.5" font-size="3.2" font-family="sans-serif" font-weight="bold" fill="currentColor" opacity="0.5">USD/CHF</text>
  <line x1="16" y1="19" x2="20.5" y2="19" stroke="currentColor" stroke-width="1" stroke-linecap="round" opacity="0.3"/>
</svg>
