<svg id="my-svg" width="2543.5" xmlns="http://www.w3.org/2000/svg" xmlns:xlink="http://www.w3.org/1999/xlink" height="1731" viewBox="-50 -10 2543.5 1731" role="graphics-document document" aria-roledescription="sequence" style="background-color: rgb(255, 255, 255);"><g><rect x="2293.5" y="1645" fill="#eaeaea" stroke="#666" width="150" height="65" name="Grid" rx="3" ry="3" class="actor actor-bottom"/><text x="2368.5" y="1677.5" dominant-baseline="central" alignment-baseline="central" class="actor actor-box" style="text-anchor: middle; font-size: 16px; font-weight: 400;"><tspan x="2368.5" dy="0">AG-Grid</tspan></text></g><g><rect x="2083.5" y="1645" fill="#eaeaea" stroke="#666" width="150" height="65" name="P" rx="3" ry="3" class="actor actor-bottom"/><text x="2158.5" y="1677.5" dominant-baseline="central" alignment-baseline="central" class="actor actor-box" style="text-anchor: middle; font-size: 16px; font-weight: 400;"><tspan x="2158.5" dy="0">STOMP Provider</tspan></text></g><g><rect x="1783.5" y="1645" fill="#eaeaea" stroke="#666" width="150" height="65" name="Hub" rx="3" ry="3" class="actor actor-bottom"/><text x="1858.5" y="1677.5" dominant-baseline="central" alignment-baseline="central" class="actor actor-box" style="text-anchor: middle; font-size: 16px; font-weight: 400;"><tspan x="1858.5" dy="-8">Hub</tspan></text><text x="1858.5" y="1677.5" dominant-baseline="central" alignment-baseline="central" class="actor actor-box" style="text-anchor: middle; font-size: 16px; font-weight: 400;"><tspan x="1858.5" dy="8">(SharedWorker)</tspan></text></g><g><rect x="1412.5" y="1645" fill="#eaeaea" stroke="#666" width="150" height="65" name="DP" rx="3" ry="3" class="actor actor-bottom"/><text x="1487.5" y="1677.5" dominant-baseline="central" alignment-baseline="central" class="actor actor-box" style="text-anchor: middle; font-size: 16px; font-weight: 400;"><tspan x="1487.5" dy="0">DataPlane</tspan></text></g><g><rect x="928" y="1645" fill="#eaeaea" stroke="#666" width="167" height="65" name="MGC" rx="3" ry="3" class="actor actor-bottom"/><text x="1011.5" y="1677.5" dominant-baseline="central" alignment-baseline="central" class="actor actor-box" style="text-anchor: middle; font-size: 16px; font-weight: 400;"><tspan x="1011.5" dy="0">MarketsGridContainer</tspan></text></g><g><rect x="718" y="1645" fill="#eaeaea" stroke="#666" width="150" height="65" name="CM" rx="3" ry="3" class="actor actor-bottom"/><text x="793" y="1677.5" dominant-baseline="central" alignment-baseline="central" class="actor actor-box" style="text-anchor: middle; font-size: 16px; font-weight: 400;"><tspan x="793" dy="0">ConfigManager</tspan></text></g><g><rect x="210" y="1645" fill="#eaeaea" stroke="#666" width="150" height="65" name="BS" rx="3" ry="3" class="actor actor-bottom"/><text x="285" y="1677.5" dominant-baseline="central" alignment-baseline="central" class="actor actor-box" style="text-anchor: middle; font-size: 16px; font-weight: 400;"><tspan x="285" dy="0">BlotterShell</tspan></text></g><g><rect x="0" y="1645" fill="#eaeaea" stroke="#666" width="150" height="65" name="U" rx="3" ry="3" class="actor actor-bottom"/><text x="75" y="1677.5" dominant-baseline="central" alignment-baseline="central" class="actor actor-box" style="text-anchor: middle; font-size: 16px; font-weight: 400;"><tspan x="75" dy="0">User</tspan></text></g><g><line id="actor7" x1="2368.5" y1="65" x2="2368.5" y2="1645" class="actor-line 200" stroke-width="0.5px" stroke="#999" name="Grid" data-et="life-line" data-id="Grid"/><g id="root-7" data-et="participant" data-type="participant" data-id="Grid"><rect x="2293.5" y="0" fill="#eaeaea" stroke="#666" width="150" height="65" name="Grid" rx="3" ry="3" class="actor actor-top"/><text x="2368.5" y="32.5" dominant-baseline="central" alignment-baseline="central" class="actor actor-box" style="text-anchor: middle; font-size: 16px; font-weight: 400;"><tspan x="2368.5" dy="0">AG-Grid</tspan></text></g></g><g><line id="actor6" x1="2158.5" y1="65" x2="2158.5" y2="1645" class="actor-line 200" stroke-width="0.5px" stroke="#999" name="P" data-et="life-line" data-id="P"/><g id="root-6" data-et="participant" data-type="participant" data-id="P"><rect x="2083.5" y="0" fill="#eaeaea" stroke="#666" width="150" height="65" name="P" rx="3" ry="3" class="actor actor-top"/><text x="2158.5" y="32.5" dominant-baseline="central" alignment-baseline="central" class="actor actor-box" style="text-anchor: middle; font-size: 16px; font-weight: 400;"><tspan x="2158.5" dy="0">STOMP Provider</tspan></text></g></g><g><line id="actor5" x1="1858.5" y1="65" x2="1858.5" y2="1645" class="actor-line 200" stroke-width="0.5px" stroke="#999" name="Hub" data-et="life-line" data-id="Hub"/><g id="root-5" data-et="participant" data-type="participant" data-id="Hub"><rect x="1783.5" y="0" fill="#eaeaea" stroke="#666" width="150" height="65" name="Hub" rx="3" ry="3" class="actor actor-top"/><text x="1858.5" y="32.5" dominant-baseline="central" alignment-baseline="central" class="actor actor-box" style="text-anchor: middle; font-size: 16px; font-weight: 400;"><tspan x="1858.5" dy="-8">Hub</tspan></text><text x="1858.5" y="32.5" dominant-baseline="central" alignment-baseline="central" class="actor actor-box" style="text-anchor: middle; font-size: 16px; font-weight: 400;"><tspan x="1858.5" dy="8">(SharedWorker)</tspan></text></g></g><g><line id="actor4" x1="1487.5" y1="65" x2="1487.5" y2="1645" class="actor-line 200" stroke-width="0.5px" stroke="#999" name="DP" data-et="life-line" data-id="DP"/><g id="root-4" data-et="participant" data-type="participant" data-id="DP"><rect x="1412.5" y="0" fill="#eaeaea" stroke="#666" width="150" height="65" name="DP" rx="3" ry="3" class="actor actor-top"/><text x="1487.5" y="32.5" dominant-baseline="central" alignment-baseline="central" class="actor actor-box" style="text-anchor: middle; font-size: 16px; font-weight: 400;"><tspan x="1487.5" dy="0">DataPlane</tspan></text></g></g><g><line id="actor3" x1="1011.5" y1="65" x2="1011.5" y2="1645" class="actor-line 200" stroke-width="0.5px" stroke="#999" name="MGC" data-et="life-line" data-id="MGC"/><g id="root-3" data-et="participant" data-type="participant" data-id="MGC"><rect x="928" y="0" fill="#eaeaea" stroke="#666" width="167" height="65" name="MGC" rx="3" ry="3" class="actor actor-top"/><text x="1011.5" y="32.5" dominant-baseline="central" alignment-baseline="central" class="actor actor-box" style="text-anchor: middle; font-size: 16px; font-weight: 400;"><tspan x="1011.5" dy="0">MarketsGridContainer</tspan></text></g></g><g><line id="actor2" x1="793" y1="65" x2="793" y2="1645" class="actor-line 200" stroke-width="0.5px" stroke="#999" name="CM" data-et="life-line" data-id="CM"/><g id="root-2" data-et="participant" data-type="participant" data-id="CM"><rect x="718" y="0" fill="#eaeaea" stroke="#666" width="150" height="65" name="CM" rx="3" ry="3" class="actor actor-top"/><text x="793" y="32.5" dominant-baseline="central" alignment-baseline="central" class="actor actor-box" style="text-anchor: middle; font-size: 16px; font-weight: 400;"><tspan x="793" dy="0">ConfigManager</tspan></text></g></g><g><line id="actor1" x1="285" y1="65" x2="285" y2="1645" class="actor-line 200" stroke-width="0.5px" stroke="#999" name="BS" data-et="life-line" data-id="BS"/><g id="root-1" data-et="participant" data-type="participant" data-id="BS"><rect x="210" y="0" fill="#eaeaea" stroke="#666" width="150" height="65" name="BS" rx="3" ry="3" class="actor actor-top"/><text x="285" y="32.5" dominant-baseline="central" alignment-baseline="central" class="actor actor-box" style="text-anchor: middle; font-size: 16px; font-weight: 400;"><tspan x="285" dy="0">BlotterShell</tspan></text></g></g><g><line id="actor0" x1="75" y1="65" x2="75" y2="1645" class="actor-line 200" stroke-width="0.5px" stroke="#999" name="U" data-et="life-line" data-id="U"/><g id="root-0" data-et="participant" data-type="participant" data-id="U"><rect x="0" y="0" fill="#eaeaea" stroke="#666" width="150" height="65" name="U" rx="3" ry="3" class="actor actor-top"/><text x="75" y="32.5" dominant-baseline="central" alignment-baseline="central" class="actor actor-box" style="text-anchor: middle; font-size: 16px; font-weight: 400;"><tspan x="75" dy="0">User</tspan></text></g></g><style>#my-svg{font-family:JetBrains Mono,Menlo,monospace;font-size:14px;fill:#333;}@keyframes edge-animation-frame{from{stroke-dashoffset:0;}}@keyframes dash{to{stroke-dashoffset:0;}}#my-svg .edge-animation-slow{stroke-dasharray:9,5!important;stroke-dashoffset:900;animation:dash 50s linear infinite;stroke-linecap:round;}#my-svg .edge-animation-fast{stroke-dasharray:9,5!important;stroke-dashoffset:900;animation:dash 20s linear infinite;stroke-linecap:round;}#my-svg .error-icon{fill:#552222;}#my-svg .error-text{fill:#552222;stroke:#552222;}#my-svg .edge-thickness-normal{stroke-width:1px;}#my-svg .edge-thickness-thick{stroke-width:3.5px;}#my-svg .edge-pattern-solid{stroke-dasharray:0;}#my-svg .edge-thickness-invisible{stroke-width:0;fill:none;}#my-svg .edge-pattern-dashed{stroke-dasharray:3;}#my-svg .edge-pattern-dotted{stroke-dasharray:2;}#my-svg .marker{fill:#475569;stroke:#475569;}#my-svg .marker.cross{stroke:#475569;}#my-svg svg{font-family:JetBrains Mono,Menlo,monospace;font-size:14px;}#my-svg p{margin:0;}#my-svg .actor{stroke:#9370DB;fill:#ECECFF;stroke-width:1;}#my-svg rect.actor.outer-path[data-look="neo"]{filter:drop-shadow(1px 2px 2px rgba(185, 185, 185, 1));}#my-svg rect.note[data-look="neo"]{stroke:#aaaa33;fill:#fff5ad;filter:drop-shadow(1px 2px 2px rgba(185, 185, 185, 1));}#my-svg text.actor&gt;tspan{fill:black;stroke:none;}#my-svg .actor-line{stroke:#9370DB;}#my-svg .innerArc{stroke-width:1.5;stroke-dasharray:none;}#my-svg .messageLine0{stroke-width:1.5;stroke-dasharray:none;stroke:#333;}#my-svg .messageLine1{stroke-width:1.5;stroke-dasharray:2,2;stroke:#333;}#my-svg [id$="-arrowhead"] path{fill:#333;stroke:#333;}#my-svg .sequenceNumber{fill:white;}#my-svg [id$="-sequencenumber"]{fill:#333;}#my-svg [id$="-crosshead"] path{fill:#333;stroke:#333;}#my-svg .messageText{fill:#333;stroke:none;}#my-svg .labelBox{stroke:#9370DB;fill:#ECECFF;filter:none;}#my-svg .labelText,#my-svg .labelText&gt;tspan{fill:black;stroke:none;}#my-svg .loopText,#my-svg .loopText&gt;tspan{fill:black;stroke:none;}#my-svg .loopLine{stroke-width:2px;stroke-dasharray:2,2;stroke:#9370DB;fill:#9370DB;}#my-svg .note{stroke:#aaaa33;fill:#fff5ad;}#my-svg .noteText,#my-svg .noteText&gt;tspan{fill:black;stroke:none;font-weight:normal;}#my-svg .activation0{fill:#f4f4f4;stroke:#666;}#my-svg .activation1{fill:#f4f4f4;stroke:#666;}#my-svg .activation2{fill:#f4f4f4;stroke:#666;}#my-svg .actorPopupMenu{position:absolute;}#my-svg .actorPopupMenuPanel{position:absolute;fill:#ECECFF;box-shadow:0px 8px 16px 0px rgba(0,0,0,0.2);filter:drop-shadow(3px 5px 2px rgb(0 0 0 / 0.4));}#my-svg .actor-man circle,#my-svg line{fill:#ECECFF;stroke-width:2px;}#my-svg g rect.rect{filter:drop-shadow(1px 2px 2px rgba(185, 185, 185, 1));stroke:#9370DB;}#my-svg .node .neo-node{stroke:#9370DB;}#my-svg [data-look="neo"].node rect,#my-svg [data-look="neo"].cluster rect,#my-svg [data-look="neo"].node polygon{stroke:#9370DB;filter:drop-shadow(1px 2px 2px rgba(185, 185, 185, 1));}#my-svg [data-look="neo"].node path{stroke:#9370DB;stroke-width:1px;}#my-svg [data-look="neo"].node .outer-path{filter:drop-shadow(1px 2px 2px rgba(185, 185, 185, 1));}#my-svg [data-look="neo"].node .neo-line path{stroke:#9370DB;filter:none;}#my-svg [data-look="neo"].node circle{stroke:#9370DB;filter:drop-shadow(1px 2px 2px rgba(185, 185, 185, 1));}#my-svg [data-look="neo"].node circle .state-start{fill:#000000;}#my-svg [data-look="neo"].icon-shape .icon{fill:#9370DB;filter:drop-shadow(1px 2px 2px rgba(185, 185, 185, 1));}#my-svg [data-look="neo"].icon-shape .icon-neo path{stroke:#9370DB;filter:drop-shadow(1px 2px 2px rgba(185, 185, 185, 1));}#my-svg :root{--mermaid-font-family:"trebuchet ms",verdana,arial,sans-serif;}</style><g/><defs><symbol id="my-svg-computer" width="24" height="24"><path transform="scale(.5)" d="M2 2v13h20v-13h-20zm18 11h-16v-9h16v9zm-10.228 6l.466-1h3.524l.467 1h-4.457zm14.228 3h-24l2-6h2.104l-1.33 4h18.45l-1.297-4h2.073l2 6zm-5-10h-14v-7h14v7z"/></symbol></defs><defs><symbol id="my-svg-database" fill-rule="evenodd" clip-rule="evenodd"><path transform="scale(.5)" d="M12.258.001l.256.004.255.005.253.008.251.01.249.012.247.015.246.016.242.019.241.02.239.023.236.024.233.027.231.028.229.031.225.032.223.034.22.036.217.038.214.04.211.041.208.043.205.045.201.046.198.048.194.05.191.051.187.053.183.054.18.056.175.057.172.059.168.06.163.061.16.063.155.064.15.066.074.033.073.033.071.034.07.034.069.035.068.035.067.035.066.035.064.036.064.036.062.036.06.036.06.037.058.037.058.037.055.038.055.038.053.038.052.038.051.039.05.039.048.039.047.039.045.04.044.04.043.04.041.04.04.041.039.041.037.041.036.041.034.041.033.042.032.042.03.042.029.042.027.042.026.043.024.043.023.043.021.043.02.043.018.044.017.043.015.044.013.044.012.044.011.045.009.044.007.045.006.045.004.045.002.045.001.045v17l-.001.045-.002.045-.004.045-.006.045-.007.045-.009.044-.011.045-.012.044-.013.044-.015.044-.017.043-.018.044-.02.043-.021.043-.023.043-.024.043-.026.043-.027.042-.029.042-.03.042-.032.042-.033.042-.034.041-.036.041-.037.041-.039.041-.04.041-.041.04-.043.04-.044.04-.045.04-.047.039-.048.039-.05.039-.051.039-.052.038-.053.038-.055.038-.055.038-.058.037-.058.037-.06.037-.06.036-.062.036-.064.036-.064.036-.066.035-.067.035-.068.035-.069.035-.07.034-.071.034-.073.033-.074.033-.15.066-.155.064-.16.063-.163.061-.168.06-.172.059-.175.057-.18.056-.183.054-.187.053-.191.051-.194.05-.198.048-.201.046-.205.045-.208.043-.211.041-.214.04-.217.038-.22.036-.223.034-.225.032-.229.031-.231.028-.233.027-.236.024-.239.023-.241.02-.242.019-.246.016-.247.015-.249.012-.251.01-.253.008-.255.005-.256.004-.258.001-.258-.001-.256-.004-.255-.005-.253-.008-.251-.01-.249-.012-.247-.015-.245-.016-.243-.019-.241-.02-.238-.023-.236-.024-.234-.027-.231-.028-.228-.031-.226-.032-.223-.034-.22-.036-.217-.038-.214-.04-.211-.041-.208-.043-.204-.045-.201-.046-.198-.048-.195-.05-.19-.051-.187-.053-.184-.054-.179-.056-.176-.057-.172-.059-.167-.06-.164-.061-.159-.063-.155-.064-.151-.066-.074-.033-.072-.033-.072-.034-.07-.034-.069-.035-.068-.035-.067-.035-.066-.035-.064-.036-.063-.036-.062-.036-.061-.036-.06-.037-.058-.037-.057-.037-.056-.038-.055-.038-.053-.038-.052-.038-.051-.039-.049-.039-.049-.039-.046-.039-.046-.04-.044-.04-.043-.04-.041-.04-.04-.041-.039-.041-.037-.041-.036-.041-.034-.041-.033-.042-.032-.042-.03-.042-.029-.042-.027-.042-.026-.043-.024-.043-.023-.043-.021-.043-.02-.043-.018-.044-.017-.043-.015-.044-.013-.044-.012-.044-.011-.045-.009-.044-.007-.045-.006-.045-.004-.045-.002-.045-.001-.045v-17l.001-.045.002-.045.004-.045.006-.045.007-.045.009-.044.011-.045.012-.044.013-.044.015-.044.017-.043.018-.044.02-.043.021-.043.023-.043.024-.043.026-.043.027-.042.029-.042.03-.042.032-.042.033-.042.034-.041.036-.041.037-.041.039-.041.04-.041.041-.04.043-.04.044-.04.046-.04.046-.039.049-.039.049-.039.051-.039.052-.038.053-.038.055-.038.056-.038.057-.037.058-.037.06-.037.061-.036.062-.036.063-.036.064-.036.066-.035.067-.035.068-.035.069-.035.07-.034.072-.034.072-.033.074-.033.151-.066.155-.064.159-.063.164-.061.167-.06.172-.059.176-.057.179-.056.184-.054.187-.053.19-.051.195-.05.198-.048.201-.046.204-.045.208-.043.211-.041.214-.04.217-.038.22-.036.223-.034.226-.032.228-.031.231-.028.234-.027.236-.024.238-.023.241-.02.243-.019.245-.016.247-.015.249-.012.251-.01.253-.008.255-.005.256-.004.258-.001.258.001zm-9.258 20.499v.01l.001.021.003.021.004.022.005.021.006.022.007.022.009.023.01.022.011.023.012.023.013.023.015.023.016.024.017.023.018.024.019.024.021.024.022.025.023.024.024.025.052.049.056.05.061.051.066.051.07.051.075.051.079.052.084.052.088.052.092.052.097.052.102.051.105.052.11.052.114.051.119.051.123.051.127.05.131.05.135.05.139.048.144.049.147.047.152.047.155.047.16.045.163.045.167.043.171.043.176.041.178.041.183.039.187.039.19.037.194.035.197.035.202.033.204.031.209.03.212.029.216.027.219.025.222.024.226.021.23.02.233.018.236.016.24.015.243.012.246.01.249.008.253.005.256.004.259.001.26-.001.257-.004.254-.005.25-.008.247-.011.244-.012.241-.014.237-.016.233-.018.231-.021.226-.021.224-.024.22-.026.216-.027.212-.028.21-.031.205-.031.202-.034.198-.034.194-.036.191-.037.187-.039.183-.04.179-.04.175-.042.172-.043.168-.044.163-.045.16-.046.155-.046.152-.047.148-.048.143-.049.139-.049.136-.05.131-.05.126-.05.123-.051.118-.052.114-.051.11-.052.106-.052.101-.052.096-.052.092-.052.088-.053.083-.051.079-.052.074-.052.07-.051.065-.051.06-.051.056-.05.051-.05.023-.024.023-.025.021-.024.02-.024.019-.024.018-.024.017-.024.015-.023.014-.024.013-.023.012-.023.01-.023.01-.022.008-.022.006-.022.006-.022.004-.022.004-.021.001-.021.001-.021v-4.127l-.077.055-.08.053-.083.054-.085.053-.087.052-.09.052-.093.051-.095.05-.097.05-.1.049-.102.049-.105.048-.106.047-.109.047-.111.046-.114.045-.115.045-.118.044-.12.043-.122.042-.124.042-.126.041-.128.04-.13.04-.132.038-.134.038-.135.037-.138.037-.139.035-.142.035-.143.034-.144.033-.147.032-.148.031-.15.03-.151.03-.153.029-.154.027-.156.027-.158.026-.159.025-.161.024-.162.023-.163.022-.165.021-.166.02-.167.019-.169.018-.169.017-.171.016-.173.015-.173.014-.175.013-.175.012-.177.011-.178.01-.179.008-.179.008-.181.006-.182.005-.182.004-.184.003-.184.002h-.37l-.184-.002-.184-.003-.182-.004-.182-.005-.181-.006-.179-.008-.179-.008-.178-.01-.176-.011-.176-.012-.175-.013-.173-.014-.172-.015-.171-.016-.17-.017-.169-.018-.167-.019-.166-.02-.165-.021-.163-.022-.162-.023-.161-.024-.159-.025-.157-.026-.156-.027-.155-.027-.153-.029-.151-.03-.15-.03-.148-.031-.146-.032-.145-.033-.143-.034-.141-.035-.14-.035-.137-.037-.136-.037-.134-.038-.132-.038-.13-.04-.128-.04-.126-.041-.124-.042-.122-.042-.12-.044-.117-.043-.116-.045-.113-.045-.112-.046-.109-.047-.106-.047-.105-.048-.102-.049-.1-.049-.097-.05-.095-.05-.093-.052-.09-.051-.087-.052-.085-.053-.083-.054-.08-.054-.077-.054v4.127zm0-5.654v.011l.001.021.003.021.004.021.005.022.006.022.007.022.009.022.01.022.011.023.012.023.013.023.015.024.016.023.017.024.018.024.019.024.021.024.022.024.023.025.024.024.052.05.056.05.061.05.066.051.07.051.075.052.079.051.084.052.088.052.092.052.097.052.102.052.105.052.11.051.114.051.119.052.123.05.127.051.131.05.135.049.139.049.144.048.147.048.152.047.155.046.16.045.163.045.167.044.171.042.176.042.178.04.183.04.187.038.19.037.194.036.197.034.202.033.204.032.209.03.212.028.216.027.219.025.222.024.226.022.23.02.233.018.236.016.24.014.243.012.246.01.249.008.253.006.256.003.259.001.26-.001.257-.003.254-.006.25-.008.247-.01.244-.012.241-.015.237-.016.233-.018.231-.02.226-.022.224-.024.22-.025.216-.027.212-.029.21-.03.205-.032.202-.033.198-.035.194-.036.191-.037.187-.039.183-.039.179-.041.175-.042.172-.043.168-.044.163-.045.16-.045.155-.047.152-.047.148-.048.143-.048.139-.05.136-.049.131-.05.126-.051.123-.051.118-.051.114-.052.11-.052.106-.052.101-.052.096-.052.092-.052.088-.052.083-.052.079-.052.074-.051.07-.052.065-.051.06-.05.056-.051.051-.049.023-.025.023-.024.021-.025.02-.024.019-.024.018-.024.017-.024.015-.023.014-.023.013-.024.012-.022.01-.023.01-.023.008-.022.006-.022.006-.022.004-.021.004-.022.001-.021.001-.021v-4.139l-.077.054-.08.054-.083.054-.085.052-.087.053-.09.051-.093.051-.095.051-.097.05-.1.049-.102.049-.105.048-.106.047-.109.047-.111.046-.114.045-.115.044-.118.044-.12.044-.122.042-.124.042-.126.041-.128.04-.13.039-.132.039-.134.038-.135.037-.138.036-.139.036-.142.035-.143.033-.144.033-.147.033-.148.031-.15.03-.151.03-.153.028-.154.028-.156.027-.158.026-.159.025-.161.024-.162.023-.163.022-.165.021-.166.02-.167.019-.169.018-.169.017-.171.016-.173.015-.173.014-.175.013-.175.012-.177.011-.178.009-.179.009-.179.007-.181.007-.182.005-.182.004-.184.003-.184.002h-.37l-.184-.002-.184-.003-.182-.004-.182-.005-.181-.007-.179-.007-.179-.009-.178-.009-.176-.011-.176-.012-.175-.013-.173-.014-.172-.015-.171-.016-.17-.017-.169-.018-.167-.019-.166-.02-.165-.021-.163-.022-.162-.023-.161-.024-.159-.025-.157-.026-.156-.027-.155-.028-.153-.028-.151-.03-.15-.03-.148-.031-.146-.033-.145-.033-.143-.033-.141-.035-.14-.036-.137-.036-.136-.037-.134-.038-.132-.039-.13-.039-.128-.04-.126-.041-.124-.042-.122-.043-.12-.043-.117-.044-.116-.044-.113-.046-.112-.046-.109-.046-.106-.047-.105-.048-.102-.049-.1-.049-.097-.05-.095-.051-.093-.051-.09-.051-.087-.053-.085-.052-.083-.054-.08-.054-.077-.054v4.139zm0-5.666v.011l.001.02.003.022.004.021.005.022.006.021.007.022.009.023.01.022.011.023.012.023.013.023.015.023.016.024.017.024.018.023.019.024.021.025.022.024.023.024.024.025.052.05.056.05.061.05.066.051.07.051.075.052.079.051.084.052.088.052.092.052.097.052.102.052.105.051.11.052.114.051.119.051.123.051.127.05.131.05.135.05.139.049.144.048.147.048.152.047.155.046.16.045.163.045.167.043.171.043.176.042.178.04.183.04.187.038.19.037.194.036.197.034.202.033.204.032.209.03.212.028.216.027.219.025.222.024.226.021.23.02.233.018.236.017.24.014.243.012.246.01.249.008.253.006.256.003.259.001.26-.001.257-.003.254-.006.25-.008.247-.01.244-.013.241-.014.237-.016.233-.018.231-.02.226-.022.224-.024.22-.025.216-.027.212-.029.21-.03.205-.032.202-.033.198-.035.194-.036.191-.037.187-.039.183-.039.179-.041.175-.042.172-.043.168-.044.163-.045.16-.045.155-.047.152-.047.148-.048.143-.049.139-.049.136-.049.131-.051.126-.05.123-.051.118-.052.114-.051.11-.052.106-.052.101-.052.096-.052.092-.052.088-.052.083-.052.079-.052.074-.052.07-.051.065-.051.06-.051.056-.05.051-.049.023-.025.023-.025.021-.024.02-.024.019-.024.018-.024.017-.024.015-.023.014-.024.013-.023.012-.023.01-.022.01-.023.008-.022.006-.022.006-.022.004-.022.004-.021.001-.021.001-.021v-4.153l-.077.054-.08.054-.083.053-.085.053-.087.053-.09.051-.093.051-.095.051-.097.05-.1.049-.102.048-.105.048-.106.048-.109.046-.111.046-.114.046-.115.044-.118.044-.12.043-.122.043-.124.042-.126.041-.128.04-.13.039-.132.039-.134.038-.135.037-.138.036-.139.036-.142.034-.143.034-.144.033-.147.032-.148.032-.15.03-.151.03-.153.028-.154.028-.156.027-.158.026-.159.024-.161.024-.162.023-.163.023-.165.021-.166.02-.167.019-.169.018-.169.017-.171.016-.173.015-.173.014-.175.013-.175.012-.177.01-.178.01-.179.009-.179.007-.181.006-.182.006-.182.004-.184.003-.184.001-.185.001-.185-.001-.184-.001-.184-.003-.182-.004-.182-.006-.181-.006-.179-.007-.179-.009-.178-.01-.176-.01-.176-.012-.175-.013-.173-.014-.172-.015-.171-.016-.17-.017-.169-.018-.167-.019-.166-.02-.165-.021-.163-.023-.162-.023-.161-.024-.159-.024-.157-.026-.156-.027-.155-.028-.153-.028-.151-.03-.15-.03-.148-.032-.146-.032-.145-.033-.143-.034-.141-.034-.14-.036-.137-.036-.136-.037-.134-.038-.132-.039-.13-.039-.128-.041-.126-.041-.124-.041-.122-.043-.12-.043-.117-.044-.116-.044-.113-.046-.112-.046-.109-.046-.106-.048-.105-.048-.102-.048-.1-.05-.097-.049-.095-.051-.093-.051-.09-.052-.087-.052-.085-.053-.083-.053-.08-.054-.077-.054v4.153zm8.74-8.179l-.257.004-.254.005-.25.008-.247.011-.244.012-.241.014-.237.016-.233.018-.231.021-.226.022-.224.023-.22.026-.216.027-.212.028-.21.031-.205.032-.202.033-.198.034-.194.036-.191.038-.187.038-.183.04-.179.041-.175.042-.172.043-.168.043-.163.045-.16.046-.155.046-.152.048-.148.048-.143.048-.139.049-.136.05-.131.05-.126.051-.123.051-.118.051-.114.052-.11.052-.106.052-.101.052-.096.052-.092.052-.088.052-.083.052-.079.052-.074.051-.07.052-.065.051-.06.05-.056.05-.051.05-.023.025-.023.024-.021.024-.02.025-.019.024-.018.024-.017.023-.015.024-.014.023-.013.023-.012.023-.01.023-.01.022-.008.022-.006.023-.006.021-.004.022-.004.021-.001.021-.001.021.001.021.001.021.004.021.004.022.006.021.006.023.008.022.01.022.01.023.012.023.013.023.014.023.015.024.017.023.018.024.019.024.02.025.021.024.023.024.023.025.051.05.056.05.06.05.065.051.07.052.074.051.079.052.083.052.088.052.092.052.096.052.101.052.106.052.11.052.114.052.118.051.123.051.126.051.131.05.136.05.139.049.143.048.148.048.152.048.155.046.16.046.163.045.168.043.172.043.175.042.179.041.183.04.187.038.191.038.194.036.198.034.202.033.205.032.21.031.212.028.216.027.22.026.224.023.226.022.231.021.233.018.237.016.241.014.244.012.247.011.25.008.254.005.257.004.26.001.26-.001.257-.004.254-.005.25-.008.247-.011.244-.012.241-.014.237-.016.233-.018.231-.021.226-.022.224-.023.22-.026.216-.027.212-.028.21-.031.205-.032.202-.033.198-.034.194-.036.191-.038.187-.038.183-.04.179-.041.175-.042.172-.043.168-.043.163-.045.16-.046.155-.046.152-.048.148-.048.143-.048.139-.049.136-.05.131-.05.126-.051.123-.051.118-.051.114-.052.11-.052.106-.052.101-.052.096-.052.092-.052.088-.052.083-.052.079-.052.074-.051.07-.052.065-.051.06-.05.056-.05.051-.05.023-.025.023-.024.021-.024.02-.025.019-.024.018-.024.017-.023.015-.024.014-.023.013-.023.012-.023.01-.023.01-.022.008-.022.006-.023.006-.021.004-.022.004-.021.001-.021.001-.021-.001-.021-.001-.021-.004-.021-.004-.022-.006-.021-.006-.023-.008-.022-.01-.022-.01-.023-.012-.023-.013-.023-.014-.023-.015-.024-.017-.023-.018-.024-.019-.024-.02-.025-.021-.024-.023-.024-.023-.025-.051-.05-.056-.05-.06-.05-.065-.051-.07-.052-.074-.051-.079-.052-.083-.052-.088-.052-.092-.052-.096-.052-.101-.052-.106-.052-.11-.052-.114-.052-.118-.051-.123-.051-.126-.051-.131-.05-.136-.05-.139-.049-.143-.048-.148-.048-.152-.048-.155-.046-.16-.046-.163-.045-.168-.043-.172-.043-.175-.042-.179-.041-.183-.04-.187-.038-.191-.038-.194-.036-.198-.034-.202-.033-.205-.032-.21-.031-.212-.028-.216-.027-.22-.026-.224-.023-.226-.022-.231-.021-.233-.018-.237-.016-.241-.014-.244-.012-.247-.011-.25-.008-.254-.005-.257-.004-.26-.001-.26.001z"/></symbol></defs><defs><symbol id="my-svg-clock" width="24" height="24"><path transform="scale(.5)" d="M12 2c5.514 0 10 4.486 10 10s-4.486 10-10 10-10-4.486-10-10 4.486-10 10-10zm0-2c-6.627 0-12 5.373-12 12s5.373 12 12 12 12-5.373 12-12-5.373-12-12-12zm5.848 12.459c.202.038.202.333.001.372-1.907.361-6.045 1.111-6.547 1.111-.719 0-1.301-.582-1.301-1.301 0-.512.77-5.447 1.125-7.445.034-.192.312-.181.343.014l.985 6.238 5.394 1.011z"/></symbol></defs><defs><marker id="my-svg-arrowhead" refX="7.9" refY="5" markerUnits="userSpaceOnUse" markerWidth="12" markerHeight="12" orient="auto-start-reverse"><path d="M -1 0 L 10 5 L 0 10 z"/></marker></defs><defs><marker id="my-svg-crosshead" markerWidth="15" markerHeight="8" orient="auto" refX="4" refY="4.5"><path fill="none" stroke="#000000" stroke-width="1pt" d="M 1,2 L 6,7 M 6,2 L 1,7" style="stroke-dasharray: 0, 0;"/></marker></defs><defs><marker id="my-svg-filled-head" refX="15.5" refY="7" markerWidth="20" markerHeight="28" orient="auto"><path d="M 18,7 L9,13 L14,7 L9,1 Z"/></marker></defs><defs><marker id="my-svg-sequencenumber" refX="15" refY="15" markerWidth="60" markerHeight="40" orient="auto"><circle cx="15" cy="15" r="6"/></marker></defs><defs><marker id="my-svg-solidTopArrowHead" refX="7.9" refY="7.25" markerUnits="userSpaceOnUse" markerWidth="12" markerHeight="12" orient="auto-start-reverse"><path d="M 0 0 L 10 8 L 0 8 z"/></marker></defs><defs><marker id="my-svg-solidBottomArrowHead" refX="7.9" refY="0.75" markerUnits="userSpaceOnUse" markerWidth="12" markerHeight="12" orient="auto-start-reverse"><path d="M 0 0 L 10 0 L 0 8 z"/></marker></defs><defs><marker id="my-svg-stickTopArrowHead" refX="7.5" refY="7" markerUnits="userSpaceOnUse" markerWidth="12" markerHeight="12" orient="auto-start-reverse"><path d="M 0 0 L 7 7" stroke="black" stroke-width="1.5" fill="none"/></marker></defs><defs><marker id="my-svg-stickBottomArrowHead" refX="7.5" refY="0" markerUnits="userSpaceOnUse" markerWidth="12" markerHeight="12" orient="auto-start-reverse"><path d="M 0 7 L 7 0" stroke="black" stroke-width="1.5" fill="none"/></marker></defs><g data-et="control-structure" data-id="i11"><line x1="2069" y1="458" x2="2250" y2="458" class="loopLine"/><line x1="2250" y1="458" x2="2250" y2="607" class="loopLine"/><line x1="2069" y1="607" x2="2250" y2="607" class="loopLine"/><line x1="2069" y1="458" x2="2069" y2="607" class="loopLine"/><polygon points="2069,458 2119,458 2119,471 2110.6,478 2069,478" class="labelBox"/><text x="2094" y="471" text-anchor="middle" dominant-baseline="middle" alignment-baseline="middle" class="labelText" style="font-size: 16px; font-weight: 400;">loop</text><text x="2184.5" y="476" text-anchor="middle" class="loopText" style="font-size: 16px; font-weight: 400;"><tspan x="2184.5">[snapshot phase]</tspan></text></g><g data-et="control-structure" data-id="i17"><line x1="1476.5" y1="295" x2="2293.5" y2="295" class="loopLine"/><line x1="2293.5" y1="295" x2="2293.5" y2="868" class="loopLine"/><line x1="1476.5" y1="868" x2="2293.5" y2="868" class="loopLine"/><line x1="1476.5" y1="295" x2="1476.5" y2="868" class="loopLine"/><line x1="1476.5" y1="784" x2="2293.5" y2="784" class="loopLine" style="stroke-dasharray: 3, 3;"/><polygon points="1476.5,295 1526.5,295 1526.5,308 1518.1,315 1476.5,315" class="labelBox"/><text x="1502" y="308" text-anchor="middle" dominant-baseline="middle" alignment-baseline="middle" class="labelText" style="font-size: 16px; font-weight: 400;">alt</text><text x="1910" y="313" text-anchor="middle" class="loopText" style="font-size: 16px; font-weight: 400;"><tspan x="1910">[First attach for this provider]</tspan></text><text x="1885" y="802" text-anchor="middle" class="loopText" style="font-size: 16px; font-weight: 400;">[Late joiner]</text></g><g data-et="control-structure" data-id="i30"><line x1="1000.5" y1="1261" x2="2379.5" y2="1261" class="loopLine"/><line x1="2379.5" y1="1261" x2="2379.5" y2="1439" class="loopLine"/><line x1="1000.5" y1="1439" x2="2379.5" y2="1439" class="loopLine"/><line x1="1000.5" y1="1261" x2="1000.5" y2="1439" class="loopLine"/><line x1="1000.5" y1="1355" x2="2379.5" y2="1355" class="loopLine" style="stroke-dasharray: 3, 3;"/><polygon points="1000.5,1261 1050.5,1261 1050.5,1274 1042.1,1281 1000.5,1281" class="labelBox"/><text x="1026" y="1274" text-anchor="middle" dominant-baseline="middle" alignment-baseline="middle" class="labelText" style="font-size: 16px; font-weight: 400;">alt</text><text x="1715" y="1279" text-anchor="middle" class="loopText" style="font-size: 16px; font-weight: 400;"><tspan x="1715">[id exists in grid]</tspan></text><text x="1690" y="1373" text-anchor="middle" class="loopText" style="font-size: 16px; font-weight: 400;">[new id]</text></g><g data-et="control-structure" data-id="i31"><line x1="990.5" y1="1010" x2="2389.5" y2="1010" class="loopLine"/><line x1="2389.5" y1="1010" x2="2389.5" y2="1449" class="loopLine"/><line x1="990.5" y1="1449" x2="2389.5" y2="1449" class="loopLine"/><line x1="990.5" y1="1010" x2="990.5" y2="1449" class="loopLine"/><polygon points="990.5,1010 1040.5,1010 1040.5,1023 1032.1,1030 990.5,1030" class="labelBox"/><text x="1016" y="1023" text-anchor="middle" dominant-baseline="middle" alignment-baseline="middle" class="labelText" style="font-size: 16px; font-weight: 400;">loop</text><text x="1715" y="1028" text-anchor="middle" class="loopText" style="font-size: 16px; font-weight: 400;"><tspan x="1715">[live phase]</tspan></text></g><text x="538" y="80" text-anchor="middle" dominant-baseline="middle" alignment-baseline="middle" class="messageText" dy="1em" style="font-size: 16px; font-weight: 400;">getConfig("marketsgrid-view-state::&lt;id&gt;")</text><line x1="292" y1="109" x2="789" y2="109" class="messageLine0" data-et="message" data-id="i1" data-from="BS" data-to="CM" stroke-width="2" stroke="none" marker-end="url(#my-svg-arrowhead)" style="fill: none;"/><line x1="285" y1="109" x2="285" y2="109" stroke-width="0" marker-start="url(#my-svg-sequencenumber)"/><text x="285" y="113" font-family="sans-serif" font-size="12px" text-anchor="middle" class="sequenceNumber">1</text><text x="541" y="124" text-anchor="middle" dominant-baseline="middle" alignment-baseline="middle" class="messageText" dy="1em" style="font-size: 16px; font-weight: 400;">{ liveProviderId, historicalProviderId, mode }</text><line x1="798" y1="153" x2="289" y2="153" class="messageLine1" data-et="message" data-id="i2" data-from="CM" data-to="BS" stroke-width="2" stroke="none" marker-end="url(#my-svg-arrowhead)" style="stroke-dasharray: 3, 3; fill: none;"/><line x1="793" y1="153" x2="793" y2="153" stroke-width="0" marker-start="url(#my-svg-sequencenumber)"/><text x="793" y="157" font-family="sans-serif" font-size="12px" text-anchor="middle" class="sequenceNumber">2</text><text x="647" y="168" text-anchor="middle" dominant-baseline="middle" alignment-baseline="middle" class="messageText" dy="1em" style="font-size: 16px; font-weight: 400;">render with initial* props</text><line x1="292" y1="197" x2="1007.5" y2="197" class="messageLine0" data-et="message" data-id="i3" data-from="BS" data-to="MGC" stroke-width="2" stroke="none" marker-end="url(#my-svg-arrowhead)" style="fill: none;"/><line x1="285" y1="197" x2="285" y2="197" stroke-width="0" marker-start="url(#my-svg-sequencenumber)"/><text x="285" y="201" font-family="sans-serif" font-size="12px" text-anchor="middle" class="sequenceNumber">3</text><text x="1248" y="212" text-anchor="middle" dominant-baseline="middle" alignment-baseline="middle" class="messageText" dy="1em" style="font-size: 16px; font-weight: 400;">client.attach(activeId, cfg, listener)</text><line x1="1018.5" y1="241" x2="1483.5" y2="241" class="messageLine0" data-et="message" data-id="i4" data-from="MGC" data-to="DP" stroke-width="2" stroke="none" marker-end="url(#my-svg-arrowhead)" style="fill: none;"/><line x1="1011.5" y1="241" x2="1011.5" y2="241" stroke-width="0" marker-start="url(#my-svg-sequencenumber)"/><text x="1011.5" y="245" font-family="sans-serif" font-size="12px" text-anchor="middle" class="sequenceNumber">4</text><text x="1672" y="256" text-anchor="middle" dominant-baseline="middle" alignment-baseline="middle" class="messageText" dy="1em" style="font-size: 16px; font-weight: 400;">{ kind: 'attach', subId, providerId, cfg }</text><line x1="1494.5" y1="285" x2="1854.5" y2="285" class="messageLine0" data-et="message" data-id="i5" data-from="DP" data-to="Hub" stroke-width="2" stroke="none" marker-end="url(#my-svg-arrowhead)" style="fill: none;"/><line x1="1487.5" y1="285" x2="1487.5" y2="285" stroke-width="0" marker-start="url(#my-svg-sequencenumber)"/><text x="1487.5" y="289" font-family="sans-serif" font-size="12px" text-anchor="middle" class="sequenceNumber">5</text><text x="2007" y="345" text-anchor="middle" dominant-baseline="middle" alignment-baseline="middle" class="messageText" dy="1em" style="font-size: 16px; font-weight: 400;">startStomp(cfg, emit)</text><line x1="1865.5" y1="374" x2="2154.5" y2="374" class="messageLine0" data-et="message" data-id="i7" data-from="Hub" data-to="P" stroke-width="2" stroke="none" marker-end="url(#my-svg-arrowhead)" style="fill: none;"/><line x1="1858.5" y1="374" x2="1858.5" y2="374" stroke-width="0" marker-start="url(#my-svg-sequencenumber)"/><text x="1858.5" y="378" font-family="sans-serif" font-size="12px" text-anchor="middle" class="sequenceNumber">6</text><text x="2160" y="389" text-anchor="middle" dominant-baseline="middle" alignment-baseline="middle" class="messageText" dy="1em" style="font-size: 16px; font-weight: 400;">connect WS, subscribe, publish trigger</text><path d="M 2159.5,418 C 2219.5,408 2219.5,448 2159.5,438" class="messageLine1" data-et="message" data-id="i8" data-from="P" data-to="P" stroke-width="2" stroke="none" marker-end="url(#my-svg-arrowhead)" x1="2165.5" style="stroke-dasharray: 3, 3; fill: none;"/><line x1="2158.5" y1="418" x2="2158.5" y2="418" stroke-width="0" marker-start="url(#my-svg-sequencenumber)"/><text x="2158.5" y="422" font-family="sans-serif" font-size="12px" text-anchor="middle" class="sequenceNumber">7</text><text x="2160" y="508" text-anchor="middle" dominant-baseline="middle" alignment-baseline="middle" class="messageText" dy="1em" style="font-size: 16px; font-weight: 400;">buffer rows (in-memory)</text><path d="M 2159.5,537 C 2219.5,527 2219.5,567 2159.5,557" class="messageLine1" data-et="message" data-id="i10" data-from="P" data-to="P" stroke-width="2" stroke="none" marker-end="url(#my-svg-arrowhead)" x1="2165.5" style="stroke-dasharray: 3, 3; fill: none;"/><line x1="2158.5" y1="537" x2="2158.5" y2="537" stroke-width="0" marker-start="url(#my-svg-sequencenumber)"/><text x="2158.5" y="541" font-family="sans-serif" font-size="12px" text-anchor="middle" class="sequenceNumber">8</text><text x="2010" y="622" text-anchor="middle" dominant-baseline="middle" alignment-baseline="middle" class="messageText" dy="1em" style="font-size: 16px; font-weight: 400;">emit({rows: [...all], replace: true})</text><line x1="2163.5" y1="651" x2="1862.5" y2="651" class="messageLine1" data-et="message" data-id="i12" data-from="P" data-to="Hub" stroke-width="2" stroke="none" marker-end="url(#my-svg-arrowhead)" style="stroke-dasharray: 3, 3; fill: none;"/><line x1="2158.5" y1="651" x2="2158.5" y2="651" stroke-width="0" marker-start="url(#my-svg-sequencenumber)"/><text x="2158.5" y="655" font-family="sans-serif" font-size="12px" text-anchor="middle" class="sequenceNumber">9</text><text x="1860" y="666" text-anchor="middle" dominant-baseline="middle" alignment-baseline="middle" class="messageText" dy="1em" style="font-size: 16px; font-weight: 400;">cache.clear() + cache.upsert(...rows)</text><path d="M 1859.5,695 C 1919.5,685 1919.5,725 1859.5,715" class="messageLine0" data-et="message" data-id="i13" data-from="Hub" data-to="Hub" stroke-width="2" stroke="none" marker-end="url(#my-svg-arrowhead)" x1="1865.5" style="fill: none;"/><line x1="1858.5" y1="695" x2="1858.5" y2="695" stroke-width="0" marker-start="url(#my-svg-sequencenumber)"/><text x="1858.5" y="699" font-family="sans-serif" font-size="12px" text-anchor="middle" class="sequenceNumber">10</text><text x="2010" y="740" text-anchor="middle" dominant-baseline="middle" alignment-baseline="middle" class="messageText" dy="1em" style="font-size: 16px; font-weight: 400;">emit({status: 'ready'})</text><line x1="2163.5" y1="769" x2="1862.5" y2="769" class="messageLine1" data-et="message" data-id="i14" data-from="P" data-to="Hub" stroke-width="2" stroke="none" marker-end="url(#my-svg-arrowhead)" style="stroke-dasharray: 3, 3; fill: none;"/><line x1="2158.5" y1="769" x2="2158.5" y2="769" stroke-width="0" marker-start="url(#my-svg-sequencenumber)"/><text x="2158.5" y="773" font-family="sans-serif" font-size="12px" text-anchor="middle" class="sequenceNumber">11</text><text x="1675" y="829" text-anchor="middle" dominant-baseline="middle" alignment-baseline="middle" class="messageText" dy="1em" style="font-size: 16px; font-weight: 400;">{ kind: 'delta', rows: [...cache], replace: true }</text><line x1="1863.5" y1="858" x2="1491.5" y2="858" class="messageLine1" data-et="message" data-id="i16" data-from="Hub" data-to="DP" stroke-width="2" stroke="none" marker-end="url(#my-svg-arrowhead)" style="stroke-dasharray: 3, 3; fill: none;"/><line x1="1858.5" y1="858" x2="1858.5" y2="858" stroke-width="0" marker-start="url(#my-svg-sequencenumber)"/><text x="1858.5" y="862" font-family="sans-serif" font-size="12px" text-anchor="middle" class="sequenceNumber">12</text><text x="1675" y="883" text-anchor="middle" dominant-baseline="middle" alignment-baseline="middle" class="messageText" dy="1em" style="font-size: 16px; font-weight: 400;">{ kind: 'delta', rows, replace: true }</text><line x1="1863.5" y1="912" x2="1491.5" y2="912" class="messageLine1" data-et="message" data-id="i18" data-from="Hub" data-to="DP" stroke-width="2" stroke="none" marker-end="url(#my-svg-arrowhead)" style="stroke-dasharray: 3, 3; fill: none;"/><line x1="1858.5" y1="912" x2="1858.5" y2="912" stroke-width="0" marker-start="url(#my-svg-sequencenumber)"/><text x="1858.5" y="916" font-family="sans-serif" font-size="12px" text-anchor="middle" class="sequenceNumber">13</text><text x="1251" y="927" text-anchor="middle" dominant-baseline="middle" alignment-baseline="middle" class="messageText" dy="1em" style="font-size: 16px; font-weight: 400;">onDelta(rows, replace=true)</text><line x1="1492.5" y1="956" x2="1015.5" y2="956" class="messageLine1" data-et="message" data-id="i19" data-from="DP" data-to="MGC" stroke-width="2" stroke="none" marker-end="url(#my-svg-arrowhead)" style="stroke-dasharray: 3, 3; fill: none;"/><line x1="1487.5" y1="956" x2="1487.5" y2="956" stroke-width="0" marker-start="url(#my-svg-sequencenumber)"/><text x="1487.5" y="960" font-family="sans-serif" font-size="12px" text-anchor="middle" class="sequenceNumber">14</text><text x="1689" y="971" text-anchor="middle" dominant-baseline="middle" alignment-baseline="middle" class="messageText" dy="1em" style="font-size: 16px; font-weight: 400;">setGridOption('rowData', rows)</text><line x1="1018.5" y1="1000" x2="2364.5" y2="1000" class="messageLine0" data-et="message" data-id="i20" data-from="MGC" data-to="Grid" stroke-width="2" stroke="none" marker-end="url(#my-svg-arrowhead)" style="fill: none;"/><line x1="1011.5" y1="1000" x2="1011.5" y2="1000" stroke-width="0" marker-start="url(#my-svg-sequencenumber)"/><text x="1011.5" y="1004" font-family="sans-serif" font-size="12px" text-anchor="middle" class="sequenceNumber">15</text><text x="2010" y="1060" text-anchor="middle" dominant-baseline="middle" alignment-baseline="middle" class="messageText" dy="1em" style="font-size: 16px; font-weight: 400;">emit({ rows: [tick] })</text><line x1="2163.5" y1="1089" x2="1862.5" y2="1089" class="messageLine1" data-et="message" data-id="i22" data-from="P" data-to="Hub" stroke-width="2" stroke="none" marker-end="url(#my-svg-arrowhead)" style="stroke-dasharray: 3, 3; fill: none;"/><line x1="2158.5" y1="1089" x2="2158.5" y2="1089" stroke-width="0" marker-start="url(#my-svg-sequencenumber)"/><text x="2158.5" y="1093" font-family="sans-serif" font-size="12px" text-anchor="middle" class="sequenceNumber">16</text><text x="1860" y="1104" text-anchor="middle" dominant-baseline="middle" alignment-baseline="middle" class="messageText" dy="1em" style="font-size: 16px; font-weight: 400;">cache.upsert(tick)</text><path d="M 1859.5,1133 C 1919.5,1123 1919.5,1163 1859.5,1153" class="messageLine0" data-et="message" data-id="i23" data-from="Hub" data-to="Hub" stroke-width="2" stroke="none" marker-end="url(#my-svg-arrowhead)" x1="1865.5" style="fill: none;"/><line x1="1858.5" y1="1133" x2="1858.5" y2="1133" stroke-width="0" marker-start="url(#my-svg-sequencenumber)"/><text x="1858.5" y="1137" font-family="sans-serif" font-size="12px" text-anchor="middle" class="sequenceNumber">17</text><text x="1675" y="1178" text-anchor="middle" dominant-baseline="middle" alignment-baseline="middle" class="messageText" dy="1em" style="font-size: 16px; font-weight: 400;">{ kind: 'delta', rows: [tick], replace: false }</text><line x1="1863.5" y1="1207" x2="1491.5" y2="1207" class="messageLine1" data-et="message" data-id="i24" data-from="Hub" data-to="DP" stroke-width="2" stroke="none" marker-end="url(#my-svg-arrowhead)" style="stroke-dasharray: 3, 3; fill: none;"/><line x1="1858.5" y1="1207" x2="1858.5" y2="1207" stroke-width="0" marker-start="url(#my-svg-sequencenumber)"/><text x="1858.5" y="1211" font-family="sans-serif" font-size="12px" text-anchor="middle" class="sequenceNumber">18</text><text x="1251" y="1222" text-anchor="middle" dominant-baseline="middle" alignment-baseline="middle" class="messageText" dy="1em" style="font-size: 16px; font-weight: 400;">onDelta([tick], replace=false)</text><line x1="1492.5" y1="1251" x2="1015.5" y2="1251" class="messageLine1" data-et="message" data-id="i25" data-from="DP" data-to="MGC" stroke-width="2" stroke="none" marker-end="url(#my-svg-arrowhead)" style="stroke-dasharray: 3, 3; fill: none;"/><line x1="1487.5" y1="1251" x2="1487.5" y2="1251" stroke-width="0" marker-start="url(#my-svg-sequencenumber)"/><text x="1487.5" y="1255" font-family="sans-serif" font-size="12px" text-anchor="middle" class="sequenceNumber">19</text><text x="1689" y="1311" text-anchor="middle" dominant-baseline="middle" alignment-baseline="middle" class="messageText" dy="1em" style="font-size: 16px; font-weight: 400;">applyTransactionAsync({ update: [tick] })</text><line x1="1018.5" y1="1340" x2="2364.5" y2="1340" class="messageLine0" data-et="message" data-id="i27" data-from="MGC" data-to="Grid" stroke-width="2" stroke="none" marker-end="url(#my-svg-arrowhead)" style="fill: none;"/><line x1="1011.5" y1="1340" x2="1011.5" y2="1340" stroke-width="0" marker-start="url(#my-svg-sequencenumber)"/><text x="1011.5" y="1344" font-family="sans-serif" font-size="12px" text-anchor="middle" class="sequenceNumber">20</text><text x="1689" y="1400" text-anchor="middle" dominant-baseline="middle" alignment-baseline="middle" class="messageText" dy="1em" style="font-size: 16px; font-weight: 400;">applyTransactionAsync({ add: [tick] })</text><line x1="1018.5" y1="1429" x2="2364.5" y2="1429" class="messageLine0" data-et="message" data-id="i29" data-from="MGC" data-to="Grid" stroke-width="2" stroke="none" marker-end="url(#my-svg-arrowhead)" style="fill: none;"/><line x1="1011.5" y1="1429" x2="1011.5" y2="1429" stroke-width="0" marker-start="url(#my-svg-sequencenumber)"/><text x="1011.5" y="1433" font-family="sans-serif" font-size="12px" text-anchor="middle" class="sequenceNumber">21</text><text x="542" y="1464" text-anchor="middle" dominant-baseline="middle" alignment-baseline="middle" class="messageText" dy="1em" style="font-size: 16px; font-weight: 400;">setLiveId(newId)</text><line x1="82" y1="1493" x2="1007.5" y2="1493" class="messageLine0" data-et="message" data-id="i32" data-from="U" data-to="MGC" stroke-width="2" stroke="none" marker-end="url(#my-svg-arrowhead)" style="fill: none;"/><line x1="75" y1="1493" x2="75" y2="1493" stroke-width="0" marker-start="url(#my-svg-sequencenumber)"/><text x="75" y="1497" font-family="sans-serif" font-size="12px" text-anchor="middle" class="sequenceNumber">22</text><text x="650" y="1508" text-anchor="middle" dominant-baseline="middle" alignment-baseline="middle" class="messageText" dy="1em" style="font-size: 16px; font-weight: 400;">onSelectionChange({ liveProviderId, historicalProviderId, mode })</text><line x1="1016.5" y1="1537" x2="289" y2="1537" class="messageLine0" data-et="message" data-id="i33" data-from="MGC" data-to="BS" stroke-width="2" stroke="none" marker-end="url(#my-svg-arrowhead)" style="fill: none;"/><line x1="1011.5" y1="1537" x2="1011.5" y2="1537" stroke-width="0" marker-start="url(#my-svg-sequencenumber)"/><text x="1011.5" y="1541" font-family="sans-serif" font-size="12px" text-anchor="middle" class="sequenceNumber">23</text><text x="538" y="1552" text-anchor="middle" dominant-baseline="middle" alignment-baseline="middle" class="messageText" dy="1em" style="font-size: 16px; font-weight: 400;">saveConfig({ configId: "marketsgrid-view-state::&lt;id&gt;", payload })</text><line x1="292" y1="1581" x2="789" y2="1581" class="messageLine0" data-et="message" data-id="i34" data-from="BS" data-to="CM" stroke-width="2" stroke="none" marker-end="url(#my-svg-arrowhead)" style="fill: none;"/><line x1="285" y1="1581" x2="285" y2="1581" stroke-width="0" marker-start="url(#my-svg-sequencenumber)"/><text x="285" y="1585" font-family="sans-serif" font-size="12px" text-anchor="middle" class="sequenceNumber">24</text><text x="1248" y="1596" text-anchor="middle" dominant-baseline="middle" alignment-baseline="middle" class="messageText" dy="1em" style="font-size: 16px; font-weight: 400;">client.detach(oldSub) + client.attach(newId, newCfg, listener)</text><line x1="1018.5" y1="1625" x2="1483.5" y2="1625" class="messageLine0" data-et="message" data-id="i35" data-from="MGC" data-to="DP" stroke-width="2" stroke="none" marker-end="url(#my-svg-arrowhead)" style="fill: none;"/><line x1="1011.5" y1="1625" x2="1011.5" y2="1625" stroke-width="0" marker-start="url(#my-svg-sequencenumber)"/><text x="1011.5" y="1629" font-family="sans-serif" font-size="12px" text-anchor="middle" class="sequenceNumber">25</text></svg>