<svg id="my-svg" width="2634.796875" xmlns="http://www.w3.org/2000/svg" xmlns:xlink="http://www.w3.org/1999/xlink" class="erDiagram" height="417.75" viewBox="0 0 2634.796875 417.75" role="graphics-document document" aria-roledescription="er" style="background-color: rgb(13, 17, 23);"><style>#my-svg{font-family:JetBrains Mono,Menlo,monospace;font-size:14px;fill:#ccc;}@keyframes edge-animation-frame{from{stroke-dashoffset:0;}}@keyframes dash{to{stroke-dashoffset:0;}}#my-svg .edge-animation-slow{stroke-dasharray:9,5!important;stroke-dashoffset:900;animation:dash 50s linear infinite;stroke-linecap:round;}#my-svg .edge-animation-fast{stroke-dasharray:9,5!important;stroke-dashoffset:900;animation:dash 20s linear infinite;stroke-linecap:round;}#my-svg .error-icon{fill:#a44141;}#my-svg .error-text{fill:#ddd;stroke:#ddd;}#my-svg .edge-thickness-normal{stroke-width:1px;}#my-svg .edge-thickness-thick{stroke-width:3.5px;}#my-svg .edge-pattern-solid{stroke-dasharray:0;}#my-svg .edge-thickness-invisible{stroke-width:0;fill:none;}#my-svg .edge-pattern-dashed{stroke-dasharray:3;}#my-svg .edge-pattern-dotted{stroke-dasharray:2;}#my-svg .marker{fill:#7a8494;stroke:#7a8494;}#my-svg .marker.cross{stroke:#7a8494;}#my-svg svg{font-family:JetBrains Mono,Menlo,monospace;font-size:14px;}#my-svg p{margin:0;}#my-svg .entityBox{fill:#1f2020;stroke:#ccc;}#my-svg .relationshipLabelBox{fill:#3a1f3a;opacity:0.7;background-color:#3a1f3a;}#my-svg .relationshipLabelBox rect{opacity:0.5;}#my-svg .labelBkg{background-color:rgba(58, 31, 58, 0.5);}#my-svg .edgeLabel{background-color:hsl(0, 0%, 34.4117647059%);}#my-svg .edgeLabel .label rect{fill:hsl(0, 0%, 34.4117647059%);}#my-svg .edgeLabel .label text{fill:#ccc;}#my-svg .edgeLabel .label{fill:#ccc;font-size:14px;}#my-svg .label{font-family:JetBrains Mono,Menlo,monospace;color:#ccc;}#my-svg .edge-pattern-dashed{stroke-dasharray:8,8;}#my-svg .node rect,#my-svg .node circle,#my-svg .node ellipse,#my-svg .node polygon{fill:#1f2020;stroke:#ccc;stroke-width:1px;}#my-svg .relationshipLine{stroke:#7a8494;stroke-width:1px;fill:none;}#my-svg .marker{fill:none!important;stroke:#7a8494!important;stroke-width:1;}#my-svg [data-look=neo].labelBkg{background-color:rgba(58, 31, 58, 0.5);}#my-svg .node .neo-node{stroke:#ccc;}#my-svg [data-look="neo"].node rect,#my-svg [data-look="neo"].cluster rect,#my-svg [data-look="neo"].node polygon{stroke:url(#my-svg-gradient);filter:drop-shadow( 1px 2px 2px rgba(185,185,185,1));}#my-svg [data-look="neo"].node path{stroke:url(#my-svg-gradient);stroke-width:1px;}#my-svg [data-look="neo"].node .outer-path{filter:drop-shadow( 1px 2px 2px rgba(185,185,185,1));}#my-svg [data-look="neo"].node .neo-line path{stroke:#ccc;filter:none;}#my-svg [data-look="neo"].node circle{stroke:url(#my-svg-gradient);filter:drop-shadow( 1px 2px 2px rgba(185,185,185,1));}#my-svg [data-look="neo"].node circle .state-start{fill:#000000;}#my-svg [data-look="neo"].icon-shape .icon{fill:url(#my-svg-gradient);filter:drop-shadow( 1px 2px 2px rgba(185,185,185,1));}#my-svg [data-look="neo"].icon-shape .icon-neo path{stroke:url(#my-svg-gradient);filter:drop-shadow( 1px 2px 2px rgba(185,185,185,1));}#my-svg :root{--mermaid-font-family:"trebuchet ms",verdana,arial,sans-serif;}</style><g><defs><marker id="my-svg_er-onlyOneStart" class="marker onlyOne er" refX="0" refY="9" markerWidth="18" markerHeight="18" orient="auto"><path d="M9,0 L9,18 M15,0 L15,18"/></marker></defs><defs><marker id="my-svg_er-onlyOneEnd" class="marker onlyOne er" refX="18" refY="9" markerWidth="18" markerHeight="18" orient="auto"><path d="M3,0 L3,18 M9,0 L9,18"/></marker></defs><defs><marker id="my-svg_er-zeroOrOneStart" class="marker zeroOrOne er" refX="0" refY="9" markerWidth="30" markerHeight="18" orient="auto"><circle fill="white" cx="21" cy="9" r="6"/><path d="M9,0 L9,18"/></marker></defs><defs><marker id="my-svg_er-zeroOrOneEnd" class="marker zeroOrOne er" refX="30" refY="9" markerWidth="30" markerHeight="18" orient="auto"><circle fill="white" cx="9" cy="9" r="6"/><path d="M21,0 L21,18"/></marker></defs><defs><marker id="my-svg_er-oneOrMoreStart" class="marker oneOrMore er" refX="18" refY="18" markerWidth="45" markerHeight="36" orient="auto"><path d="M0,18 Q 18,0 36,18 Q 18,36 0,18 M42,9 L42,27"/></marker></defs><defs><marker id="my-svg_er-oneOrMoreEnd" class="marker oneOrMore er" refX="27" refY="18" markerWidth="45" markerHeight="36" orient="auto"><path d="M3,9 L3,27 M9,18 Q27,0 45,18 Q27,36 9,18"/></marker></defs><defs><marker id="my-svg_er-zeroOrMoreStart" class="marker zeroOrMore er" refX="18" refY="18" markerWidth="57" markerHeight="36" orient="auto"><circle fill="white" cx="48" cy="18" r="6"/><path d="M0,18 Q18,0 36,18 Q18,36 0,18"/></marker></defs><defs><marker id="my-svg_er-zeroOrMoreEnd" class="marker zeroOrMore er" refX="39" refY="18" markerWidth="57" markerHeight="36" orient="auto"><circle fill="white" cx="9" cy="18" r="6"/><path d="M21,18 Q39,0 57,18 Q39,36 21,18"/></marker></defs><g class="root"><g class="clusters"/><g class="edgePaths"><path d="M1309.996,56.489L1139.855,72.074C969.714,87.659,629.431,118.83,459.29,147.894C289.148,176.958,289.148,203.917,289.148,217.396L289.148,230.875" id="my-svg-id_entity-APP_CONFIG_TABLE-0_entity-MARKETS_GRID_PROFILE_SET-1_0" class="edge-thickness-normal edge-pattern-solid relationshipLine" style="undefined;;;undefined" data-edge="true" data-et="edge" data-id="id_entity-APP_CONFIG_TABLE-0_entity-MARKETS_GRID_PROFILE_SET-1_0" data-points="W3sieCI6MTMwOS45OTYwOTM3NSwieSI6NTYuNDg4NjY2MTI4NDY5MzV9LHsieCI6Mjg5LjE0ODQzNzUsInkiOjE1MH0seyJ4IjoyODkuMTQ4NDM3NSwieSI6MjMwLjg3NX1d" data-look="classic" marker-start="url(#my-svg_er-onlyOneStart)" marker-end="url(#my-svg_er-zeroOrMoreEnd)"/><path d="M1309.996,72.02L1261.805,85.017C1213.615,98.013,1117.233,124.007,1069.042,150.483C1020.852,176.958,1020.852,203.917,1020.852,217.396L1020.852,230.875" id="my-svg-id_entity-APP_CONFIG_TABLE-0_entity-VIEW_STATE-2_1" class="edge-thickness-normal edge-pattern-solid relationshipLine" style="undefined;;;undefined" data-edge="true" data-et="edge" data-id="id_entity-APP_CONFIG_TABLE-0_entity-VIEW_STATE-2_1" data-points="W3sieCI6MTMwOS45OTYwOTM3NSwieSI6NzIuMDIwMDc4NDY2Mzc2NzV9LHsieCI6MTAyMC44NTE1NjI1LCJ5IjoxNTB9LHsieCI6MTAyMC44NTE1NjI1LCJ5IjoyMzAuODc1fV0=" data-look="classic" marker-start="url(#my-svg_er-onlyOneStart)" marker-end="url(#my-svg_er-zeroOrMoreEnd)"/><path d="M1484.418,72.02L1532.609,85.017C1580.799,98.013,1677.181,124.007,1725.372,147.17C1773.563,170.333,1773.563,190.667,1773.563,200.833L1773.563,211" id="my-svg-id_entity-APP_CONFIG_TABLE-0_entity-DATA_PROVIDER-3_2" class="edge-thickness-normal edge-pattern-solid relationshipLine" style="undefined;;;undefined" data-edge="true" data-et="edge" data-id="id_entity-APP_CONFIG_TABLE-0_entity-DATA_PROVIDER-3_2" data-points="W3sieCI6MTQ4NC40MTc5Njg3NSwieSI6NzIuMDIwMDc4NDY2Mzc2NzV9LHsieCI6MTc3My41NjI1LCJ5IjoxNTB9LHsieCI6MTc3My41NjI1LCJ5IjoyMTF9XQ==" data-look="classic" marker-start="url(#my-svg_er-onlyOneStart)" marker-end="url(#my-svg_er-zeroOrMoreEnd)"/><path d="M1484.418,57.144L1640.558,72.62C1796.698,88.096,2108.978,119.048,2265.118,148.003C2421.258,176.958,2421.258,203.917,2421.258,217.396L2421.258,230.875" id="my-svg-id_entity-APP_CONFIG_TABLE-0_entity-APPDATA-4_3" class="edge-thickness-normal edge-pattern-solid relationshipLine" style="undefined;;;undefined" data-edge="true" data-et="edge" data-id="id_entity-APP_CONFIG_TABLE-0_entity-APPDATA-4_3" data-points="W3sieCI6MTQ4NC40MTc5Njg3NSwieSI6NTcuMTQ0MDE0ODQ2MDY1NTI0fSx7IngiOjI0MjEuMjU3ODEyNSwieSI6MTUwfSx7IngiOjI0MjEuMjU3ODEyNSwieSI6MjMwLjg3NX1d" data-look="classic" marker-start="url(#my-svg_er-onlyOneStart)" marker-end="url(#my-svg_er-zeroOrMoreEnd)"/></g><g class="edgeLabels"><g class="edgeLabel" transform="translate(289.1484375, 150)"><g class="label" data-id="id_entity-APP_CONFIG_TABLE-0_entity-MARKETS_GRID_PROFILE_SET-1_0" transform="translate(-58.8125, -10.5)"><foreignObject width="117.625" height="21"><div xmlns="http://www.w3.org/1999/xhtml" class="labelBkg" style="display: table-cell; white-space: nowrap; line-height: 1.5; max-width: 200px; text-align: center;"><span class="edgeLabel"><p>one per gridId</p></span></div></foreignObject></g></g><g class="edgeLabel" transform="translate(1020.8515625, 150)"><g class="label" data-id="id_entity-APP_CONFIG_TABLE-0_entity-VIEW_STATE-2_1" transform="translate(-100, -21)"><foreignObject width="200" height="42"><div xmlns="http://www.w3.org/1999/xhtml" class="labelBkg" style="display: table; white-space: break-spaces; line-height: 1.5; max-width: 200px; text-align: center; width: 200px;"><span class="edgeLabel"><p>one per (appId, userId, instanceId)</p></span></div></foreignObject></g></g><g class="edgeLabel" transform="translate(1773.5625, 150)"><g class="label" data-id="id_entity-APP_CONFIG_TABLE-0_entity-DATA_PROVIDER-3_2" transform="translate(-54.609375, -10.5)"><foreignObject width="109.21875" height="21"><div xmlns="http://www.w3.org/1999/xhtml" class="labelBkg" style="display: table-cell; white-space: nowrap; line-height: 1.5; max-width: 200px; text-align: center;"><span class="edgeLabel"><p>many per user</p></span></div></foreignObject></g></g><g class="edgeLabel" transform="translate(2421.2578125, 150)"><g class="label" data-id="id_entity-APP_CONFIG_TABLE-0_entity-APPDATA-4_3" transform="translate(-54.609375, -10.5)"><foreignObject width="109.21875" height="21"><div xmlns="http://www.w3.org/1999/xhtml" class="labelBkg" style="display: table-cell; white-space: nowrap; line-height: 1.5; max-width: 200px; text-align: center;"><span class="edgeLabel"><p>many per user</p></span></div></foreignObject></g></g></g><g class="nodes"><g class="node default" id="my-svg-entity-APP_CONFIG_TABLE-0" data-look="classic" transform="translate(1397.20703125, 48.5)"><rect class="basic label-container" style="" x="-87.2109375" y="-40.5" width="174.421875" height="81"/><g class="label" style="" transform="translate(-67.2109375, -10.5)"><rect/><foreignObject width="134.421875" height="21"><div xmlns="http://www.w3.org/1999/xhtml" style="display: table-cell; white-space: nowrap; line-height: 1.5; max-width: 200px; text-align: center;"><span class="nodeLabel markdown-node-label"><p>APP_CONFIG_TABLE</p></span></div></foreignObject></g></g><g class="node default" id="my-svg-entity-MARKETS_GRID_PROFILE_SET-1" data-look="classic" transform="translate(289.1484375, 310.375)"><g class="outer-path" style=""><path d="M-281.1484375 -79.5 L281.1484375 -79.5 L281.1484375 79.5 L-281.1484375 79.5" stroke="none" stroke-width="0" fill="#1f2020"/><path d="M-281.1484375 -79.5 C-79.73578471874569 -79.5, 121.67686806250862 -79.5, 281.1484375 -79.5 M-281.1484375 -79.5 C-117.82774646822168 -79.5, 45.49294456355665 -79.5, 281.1484375 -79.5 M281.1484375 -79.5 C281.1484375 -26.68726784924268, 281.1484375 26.12546430151464, 281.1484375 79.5 M281.1484375 -79.5 C281.1484375 -17.390387494443893, 281.1484375 44.719225011112215, 281.1484375 79.5 M281.1484375 79.5 C134.26406061840038 79.5, -12.620316263199243 79.5, -281.1484375 79.5 M281.1484375 79.5 C112.47996838008359 79.5, -56.18850073983282 79.5, -281.1484375 79.5 M-281.1484375 79.5 C-281.1484375 24.372945212278182, -281.1484375 -30.754109575443636, -281.1484375 -79.5 M-281.1484375 79.5 C-281.1484375 36.687716830082934, -281.1484375 -6.124566339834132, -281.1484375 -79.5" stroke="#ccc" stroke-width="1.3" fill="none" stroke-dasharray="0 0"/></g><g style="" class="row-rect-odd"><path d="M-281.1484375 -39.75 L281.1484375 -39.75 L281.1484375 0 L-281.1484375 0" stroke="none" stroke-width="0" fill="hsl(180, 1.5873015873%, 17.3529411765%)"/><path d="M-281.1484375 -39.75 C-133.4101835657756 -39.75, 14.328070368448778 -39.75, 281.1484375 -39.75 M-281.1484375 -39.75 C-109.18409133096802 -39.75, 62.78025483806397 -39.75, 281.1484375 -39.75 M281.1484375 -39.75 C281.1484375 -29.41247689029062, 281.1484375 -19.07495378058124, 281.1484375 0 M281.1484375 -39.75 C281.1484375 -24.3193476838426, 281.1484375 -8.888695367685198, 281.1484375 0 M281.1484375 0 C141.19030080237368 0, 1.232164104747369 0, -281.1484375 0 M281.1484375 0 C127.15679354508956 0, -26.834850409820888 0, -281.1484375 0 M-281.1484375 0 C-281.1484375 -13.828371882644467, -281.1484375 -27.656743765288933, -281.1484375 -39.75 M-281.1484375 0 C-281.1484375 -13.453503672143164, -281.1484375 -26.907007344286328, -281.1484375 -39.75" stroke="#ccc" stroke-width="1.3" fill="none" stroke-dasharray="0 0"/></g><g style="" class="row-rect-even"><path d="M-281.1484375 0 L281.1484375 0 L281.1484375 39.75 L-281.1484375 39.75" stroke="none" stroke-width="0" fill="hsl(180, 1.5873015873%, 2.3529411765%)"/><path d="M-281.1484375 0 C-163.87783141591865 0, -46.6072253318373 0, 281.1484375 0 M-281.1484375 0 C-105.99400135021108 0, 69.16043479957784 0, 281.1484375 0 M281.1484375 0 C281.1484375 9.803693122808253, 281.1484375 19.607386245616507, 281.1484375 39.75 M281.1484375 0 C281.1484375 13.81967848252721, 281.1484375 27.63935696505442, 281.1484375 39.75 M281.1484375 39.75 C113.36494218507397 39.75, -54.41855312985206 39.75, -281.1484375 39.75 M281.1484375 39.75 C83.39800708210205 39.75, -114.35242333579589 39.75, -281.1484375 39.75 M-281.1484375 39.75 C-281.1484375 26.42079010573347, -281.1484375 13.09158021146694, -281.1484375 0 M-281.1484375 39.75 C-281.1484375 25.856965886841916, -281.1484375 11.963931773683832, -281.1484375 0" stroke="#ccc" stroke-width="1.3" fill="none" stroke-dasharray="0 0"/></g><g style="" class="row-rect-odd"><path d="M-281.1484375 39.75 L281.1484375 39.75 L281.1484375 79.5 L-281.1484375 79.5" stroke="none" stroke-width="0" fill="hsl(180, 1.5873015873%, 17.3529411765%)"/><path d="M-281.1484375 39.75 C-104.08611437805024 39.75, 72.97620874389952 39.75, 281.1484375 39.75 M-281.1484375 39.75 C-148.19449166683881 39.75, -15.24054583367763 39.75, 281.1484375 39.75 M281.1484375 39.75 C281.1484375 48.265528887577084, 281.1484375 56.78105777515417, 281.1484375 79.5 M281.1484375 39.75 C281.1484375 53.503839800400264, 281.1484375 67.25767960080053, 281.1484375 79.5 M281.1484375 79.5 C158.80747175037936 79.5, 36.46650600075873 79.5, -281.1484375 79.5 M281.1484375 79.5 C103.1510657281255 79.5, -74.846306043749 79.5, -281.1484375 79.5 M-281.1484375 79.5 C-281.1484375 66.05407508603399, -281.1484375 52.60815017206798, -281.1484375 39.75 M-281.1484375 79.5 C-281.1484375 66.22255434579635, -281.1484375 52.94510869159272, -281.1484375 39.75" stroke="#ccc" stroke-width="1.3" fill="none" stroke-dasharray="0 0"/></g><g class="label name" transform="translate(-100.8203125, -70.125)" style=""><foreignObject width="201.640625" height="21"><div xmlns="http://www.w3.org/1999/xhtml" style="display: table-cell; white-space: nowrap; line-height: 1.5; max-width: 334px; text-align: start;"><span class="nodeLabel"><p>MARKETS_GRID_PROFILE_SET</p></span></div></foreignObject></g><g class="label attribute-type" transform="translate(-268.6484375, -30.375)" style=""><foreignObject width="50.421875" height="21"><div xmlns="http://www.w3.org/1999/xhtml" style="display: table-cell; white-space: nowrap; line-height: 1.5; max-width: 136px; text-align: start;"><span class="nodeLabel"><p>string</p></span></div></foreignObject></g><g class="label attribute-name" transform="translate(-193.2265625, -30.375)" style=""><foreignObject width="67.21875" height="21"><div xmlns="http://www.w3.org/1999/xhtml" style="display: table-cell; white-space: nowrap; line-height: 1.5; max-width: 155px; text-align: start;"><span class="nodeLabel"><p>configId</p></span></div></foreignObject></g><g class="label attribute-keys" transform="translate(-59.0078125, -30.375)" style=""><foreignObject width="0" height="0"><div xmlns="http://www.w3.org/1999/xhtml" style="display: table-cell; white-space: nowrap; line-height: 1.5; max-width: 100px; text-align: start;"><span class="nodeLabel"></span></div></foreignObject></g><g class="label attribute-comment" transform="translate(-59.0078125, -30.375)" style=""><foreignObject width="84.015625" height="21"><div xmlns="http://www.w3.org/1999/xhtml" style="display: table-cell; white-space: nowrap; line-height: 1.5; max-width: 167px; text-align: start;"><span class="nodeLabel"><p>instanceId</p></span></div></foreignObject></g><g class="label attribute-type" transform="translate(-268.6484375, 9.375)" style=""><foreignObject width="50.421875" height="21"><div xmlns="http://www.w3.org/1999/xhtml" style="display: table-cell; white-space: nowrap; line-height: 1.5; max-width: 136px; text-align: start;"><span class="nodeLabel"><p>string</p></span></div></foreignObject></g><g class="label attribute-name" transform="translate(-193.2265625, 9.375)" style=""><foreignObject width="109.21875" height="21"><div xmlns="http://www.w3.org/1999/xhtml" style="display: table-cell; white-space: nowrap; line-height: 1.5; max-width: 203px; text-align: start;"><span class="nodeLabel"><p>componentType</p></span></div></foreignObject></g><g class="label attribute-keys" transform="translate(-59.0078125, 9.375)" style=""><foreignObject width="0" height="0"><div xmlns="http://www.w3.org/1999/xhtml" style="display: table-cell; white-space: nowrap; line-height: 1.5; max-width: 100px; text-align: start;"><span class="nodeLabel"></span></div></foreignObject></g><g class="label attribute-comment" transform="translate(-59.0078125, 9.375)" style=""><foreignObject width="201.640625" height="21"><div xmlns="http://www.w3.org/1999/xhtml" style="display: table-cell; white-space: nowrap; line-height: 1.5; max-width: 254px; text-align: start;"><span class="nodeLabel"><p>markets-grid-profile-set</p></span></div></foreignObject></g><g class="label attribute-type" transform="translate(-268.6484375, 49.125)" style=""><foreignObject width="33.609375" height="21"><div xmlns="http://www.w3.org/1999/xhtml" style="display: table-cell; white-space: nowrap; line-height: 1.5; max-width: 130px; text-align: start;"><span class="nodeLabel"><p>json</p></span></div></foreignObject></g><g class="label attribute-name" transform="translate(-193.2265625, 49.125)" style=""><foreignObject width="58.8125" height="21"><div xmlns="http://www.w3.org/1999/xhtml" style="display: table-cell; white-space: nowrap; line-height: 1.5; max-width: 153px; text-align: start;"><span class="nodeLabel"><p>payload</p></span></div></foreignObject></g><g class="label attribute-keys" transform="translate(-59.0078125, 49.125)" style=""><foreignObject width="0" height="0"><div xmlns="http://www.w3.org/1999/xhtml" style="display: table-cell; white-space: nowrap; line-height: 1.5; max-width: 100px; text-align: start;"><span class="nodeLabel"></span></div></foreignObject></g><g class="label attribute-comment" transform="translate(-59.0078125, 49.125)" style=""><foreignObject width="327.65625" height="21"><div xmlns="http://www.w3.org/1999/xhtml" style="display: table-cell; white-space: nowrap; line-height: 1.5; max-width: 344px; text-align: start;"><span class="nodeLabel"><p>active+saved profiles, columns, filters</p></span></div></foreignObject></g><g class="divider"><path d="M-281.1484375 -39.75005 L-281.1484375 -39.74995 L281.1484375 -39.74995 L281.1484375 -39.75005" stroke="none" stroke-width="0" fill="#1f2020" fill-rule="evenodd"/><path d="M-281.1484375 -39.75005 C-281.1484375 -39.75001512253405, -281.1484375 -39.749980245068095, -281.1484375 -39.74995 M-281.1484375 -39.75005 C-281.1484375 -39.7500148243378, -281.1484375 -39.74997964867561, -281.1484375 -39.74995 M-281.1484375 -39.74995 C-92.57915317838976 -39.74995, 95.99013114322048 -39.74995, 281.1484375 -39.74995 M-281.1484375 -39.74995 C-94.86669913502246 -39.74995, 91.41503922995508 -39.74995, 281.1484375 -39.74995 M281.1484375 -39.74995 C281.1484375 -39.74998979656047, 281.1484375 -39.75002959312094, 281.1484375 -39.75005 M281.1484375 -39.74995 C281.1484375 -39.74997865806763, 281.1484375 -39.750007316135274, 281.1484375 -39.75005 M281.1484375 -39.75005 C66.01824056455439 -39.75005, -149.11195637089122 -39.75005, -281.1484375 -39.75005 M281.1484375 -39.75005 C56.71065937950556 -39.75005, -167.72711874098889 -39.75005, -281.1484375 -39.75005" stroke="#ccc" stroke-width="1.3" fill="none" stroke-dasharray="0 0"/></g><g class="divider"><path d="M-205.7266125 -39.75 L-205.7265125 -39.75 L-205.7265125 79.5 L-205.7266125 79.5" stroke="none" stroke-width="0" fill="#1f2020" fill-rule="evenodd"/><path d="M-205.7266125 -39.75 C-205.7265851615013 -39.75, -205.7265578230026 -39.75, -205.7265125 -39.75 M-205.7266125 -39.75 C-205.72658333822088 -39.75, -205.72655417644177 -39.75, -205.7265125 -39.75 M-205.7265125 -39.75 C-205.7265125 5.217087652408814, -205.7265125 50.18417530481763, -205.7265125 79.5 M-205.7265125 -39.75 C-205.7265125 -14.995033681777873, -205.7265125 9.759932636444255, -205.7265125 79.5 M-205.7265125 79.5 C-205.72654141556495 79.5, -205.7265703311299 79.5, -205.7266125 79.5 M-205.7265125 79.5 C-205.7265513348255 79.5, -205.72659016965096 79.5, -205.7266125 79.5 M-205.7266125 79.5 C-205.7266125 53.48231351414217, -205.7266125 27.46462702828434, -205.7266125 -39.75 M-205.7266125 79.5 C-205.7266125 50.91030282885585, -205.7266125 22.320605657711702, -205.7266125 -39.75" stroke="#ccc" stroke-width="1.3" fill="none" stroke-dasharray="0 0"/></g><g class="divider"><path d="M-71.5078625 -39.75 L-71.5077625 -39.75 L-71.5077625 79.5 L-71.5078625 79.5" stroke="none" stroke-width="0" fill="#1f2020" fill-rule="evenodd"/><path d="M-71.5078625 -39.75 C-71.50782965242438 -39.75, -71.50779680484877 -39.75, -71.5077625 -39.75 M-71.5078625 -39.75 C-71.50783277416454 -39.75, -71.50780304832908 -39.75, -71.5077625 -39.75 M-71.5077625 -39.75 C-71.5077625 -7.304125039960077, -71.5077625 25.141749920079846, -71.5077625 79.5 M-71.5077625 -39.75 C-71.5077625 -5.2413353784252195, -71.5077625 29.26732924314956, -71.5077625 79.5 M-71.5077625 79.5 C-71.50778429570204 79.5, -71.50780609140406 79.5, -71.5078625 79.5 M-71.5077625 79.5 C-71.5077946639767 79.5, -71.5078268279534 79.5, -71.5078625 79.5 M-71.5078625 79.5 C-71.5078625 48.35727648753861, -71.5078625 17.214552975077225, -71.5078625 -39.75 M-71.5078625 79.5 C-71.5078625 33.9900829189532, -71.5078625 -11.519834162093602, -71.5078625 -39.75" stroke="#ccc" stroke-width="1.3" fill="none" stroke-dasharray="0 0"/></g><g class="divider"><path d="M-281.1484375 -39.75005 L-281.1484375 -39.74995 L281.1484375 -39.74995 L281.1484375 -39.75005" stroke="none" stroke-width="0" fill="#1f2020" fill-rule="evenodd"/><path d="M-281.1484375 -39.75005 C-281.1484375 -39.7500271873718, -281.1484375 -39.75000437474359, -281.1484375 -39.74995 M-281.1484375 -39.75005 C-281.1484375 -39.75001256046217, -281.1484375 -39.74997512092433, -281.1484375 -39.74995 M-281.1484375 -39.74995 C-90.49820792193302 -39.74995, 100.15202165613397 -39.74995, 281.1484375 -39.74995 M-281.1484375 -39.74995 C-100.37963849562414 -39.74995, 80.38916050875173 -39.74995, 281.1484375 -39.74995 M281.1484375 -39.74995 C281.1484375 -39.749989116601725, 281.1484375 -39.75002823320345, 281.1484375 -39.75005 M281.1484375 -39.74995 C281.1484375 -39.74997922469921, 281.1484375 -39.75000844939842, 281.1484375 -39.75005 M281.1484375 -39.75005 C164.23904836831227 -39.75005, 47.329659236624536 -39.75005, -281.1484375 -39.75005 M281.1484375 -39.75005 C107.92965252647352 -39.75005, -65.28913244705296 -39.75005, -281.1484375 -39.75005" stroke="#ccc" stroke-width="1.3" fill="none" stroke-dasharray="0 0"/></g></g><g class="node default" id="my-svg-entity-VIEW_STATE-2" data-look="classic" transform="translate(1020.8515625, 310.375)"><g class="outer-path" style=""><path d="M-310.5546875 -79.5 L310.5546875 -79.5 L310.5546875 79.5 L-310.5546875 79.5" stroke="none" stroke-width="0" fill="#1f2020"/><path d="M-310.5546875 -79.5 C-103.2409463044026 -79.5, 104.0727948911948 -79.5, 310.5546875 -79.5 M-310.5546875 -79.5 C-66.7677863135145 -79.5, 177.019114872971 -79.5, 310.5546875 -79.5 M310.5546875 -79.5 C310.5546875 -39.75166222965738, 310.5546875 -0.0033244593147543355, 310.5546875 79.5 M310.5546875 -79.5 C310.5546875 -17.856616230734204, 310.5546875 43.78676753853159, 310.5546875 79.5 M310.5546875 79.5 C132.63775824312194 79.5, -45.27917101375613 79.5, -310.5546875 79.5 M310.5546875 79.5 C175.65652443802918 79.5, 40.75836137605836 79.5, -310.5546875 79.5 M-310.5546875 79.5 C-310.5546875 28.488533479058376, -310.5546875 -22.52293304188325, -310.5546875 -79.5 M-310.5546875 79.5 C-310.5546875 31.900377050936072, -310.5546875 -15.699245898127856, -310.5546875 -79.5" stroke="#ccc" stroke-width="1.3" fill="none" stroke-dasharray="0 0"/></g><g style="" class="row-rect-odd"><path d="M-310.5546875 -39.75 L310.5546875 -39.75 L310.5546875 0 L-310.5546875 0" stroke="none" stroke-width="0" fill="hsl(180, 1.5873015873%, 17.3529411765%)"/><path d="M-310.5546875 -39.75 C-168.9012252447822 -39.75, -27.24776298956442 -39.75, 310.5546875 -39.75 M-310.5546875 -39.75 C-148.3129412552698 -39.75, 13.928804989460389 -39.75, 310.5546875 -39.75 M310.5546875 -39.75 C310.5546875 -25.34537919652084, 310.5546875 -10.940758393041683, 310.5546875 0 M310.5546875 -39.75 C310.5546875 -25.840016414095935, 310.5546875 -11.93003282819187, 310.5546875 0 M310.5546875 0 C68.82825292398095 0, -172.8981816520381 0, -310.5546875 0 M310.5546875 0 C182.5377088613175 0, 54.520730222634995 0, -310.5546875 0 M-310.5546875 0 C-310.5546875 -14.042492876434965, -310.5546875 -28.08498575286993, -310.5546875 -39.75 M-310.5546875 0 C-310.5546875 -12.10190995500068, -310.5546875 -24.20381991000136, -310.5546875 -39.75" stroke="#ccc" stroke-width="1.3" fill="none" stroke-dasharray="0 0"/></g><g style="" class="row-rect-even"><path d="M-310.5546875 0 L310.5546875 0 L310.5546875 39.75 L-310.5546875 39.75" stroke="none" stroke-width="0" fill="hsl(180, 1.5873015873%, 2.3529411765%)"/><path d="M-310.5546875 0 C-172.98808475933882 0, -35.42148201867764 0, 310.5546875 0 M-310.5546875 0 C-170.32422644903556 0, -30.093765398071127 0, 310.5546875 0 M310.5546875 0 C310.5546875 10.75592160439341, 310.5546875 21.51184320878682, 310.5546875 39.75 M310.5546875 0 C310.5546875 13.275899369042431, 310.5546875 26.551798738084862, 310.5546875 39.75 M310.5546875 39.75 C92.88845158299188 39.75, -124.77778433401625 39.75, -310.5546875 39.75 M310.5546875 39.75 C163.20421395121093 39.75, 15.853740402421863 39.75, -310.5546875 39.75 M-310.5546875 39.75 C-310.5546875 30.71712777335599, -310.5546875 21.684255546711977, -310.5546875 0 M-310.5546875 39.75 C-310.5546875 30.903750841492936, -310.5546875 22.05750168298587, -310.5546875 0" stroke="#ccc" stroke-width="1.3" fill="none" stroke-dasharray="0 0"/></g><g style="" class="row-rect-odd"><path d="M-310.5546875 39.75 L310.5546875 39.75 L310.5546875 79.5 L-310.5546875 79.5" stroke="none" stroke-width="0" fill="hsl(180, 1.5873015873%, 17.3529411765%)"/><path d="M-310.5546875 39.75 C-66.08073547314453 39.75, 178.39321655371094 39.75, 310.5546875 39.75 M-310.5546875 39.75 C-81.54953283265294 39.75, 147.4556218346941 39.75, 310.5546875 39.75 M310.5546875 39.75 C310.5546875 55.61511815135501, 310.5546875 71.48023630271003, 310.5546875 79.5 M310.5546875 39.75 C310.5546875 53.997128815357655, 310.5546875 68.24425763071531, 310.5546875 79.5 M310.5546875 79.5 C173.50264655174925 79.5, 36.4506056034985 79.5, -310.5546875 79.5 M310.5546875 79.5 C119.82352823716474 79.5, -70.90763102567053 79.5, -310.5546875 79.5 M-310.5546875 79.5 C-310.5546875 67.89945597910325, -310.5546875 56.29891195820652, -310.5546875 39.75 M-310.5546875 79.5 C-310.5546875 65.78898081689138, -310.5546875 52.07796163378275, -310.5546875 39.75" stroke="#ccc" stroke-width="1.3" fill="none" stroke-dasharray="0 0"/></g><g class="label name" transform="translate(-42.0078125, -70.125)" style=""><foreignObject width="84.015625" height="21"><div xmlns="http://www.w3.org/1999/xhtml" style="display: table-cell; white-space: nowrap; line-height: 1.5; max-width: 198px; text-align: start;"><span class="nodeLabel"><p>VIEW_STATE</p></span></div></foreignObject></g><g class="label attribute-type" transform="translate(-298.0546875, -30.375)" style=""><foreignObject width="50.421875" height="21"><div xmlns="http://www.w3.org/1999/xhtml" style="display: table-cell; white-space: nowrap; line-height: 1.5; max-width: 136px; text-align: start;"><span class="nodeLabel"><p>string</p></span></div></foreignObject></g><g class="label attribute-name" transform="translate(-222.6328125, -30.375)" style=""><foreignObject width="67.21875" height="21"><div xmlns="http://www.w3.org/1999/xhtml" style="display: table-cell; white-space: nowrap; line-height: 1.5; max-width: 155px; text-align: start;"><span class="nodeLabel"><p>configId</p></span></div></foreignObject></g><g class="label attribute-keys" transform="translate(-88.4140625, -30.375)" style=""><foreignObject width="0" height="0"><div xmlns="http://www.w3.org/1999/xhtml" style="display: table-cell; white-space: nowrap; line-height: 1.5; max-width: 100px; text-align: start;"><span class="nodeLabel"></span></div></foreignObject></g><g class="label attribute-comment" transform="translate(-88.4140625, -30.375)" style=""><foreignObject width="201.640625" height="21"><div xmlns="http://www.w3.org/1999/xhtml" style="display: table-cell; white-space: nowrap; line-height: 1.5; max-width: 342px; text-align: start;"><span class="nodeLabel"><p>marketsgrid-view-state::</p></span></div></foreignObject></g><g class="label attribute-type" transform="translate(-298.0546875, 9.375)" style=""><foreignObject width="50.421875" height="21"><div xmlns="http://www.w3.org/1999/xhtml" style="display: table-cell; white-space: nowrap; line-height: 1.5; max-width: 136px; text-align: start;"><span class="nodeLabel"><p>string</p></span></div></foreignObject></g><g class="label attribute-name" transform="translate(-222.6328125, 9.375)" style=""><foreignObject width="109.21875" height="21"><div xmlns="http://www.w3.org/1999/xhtml" style="display: table-cell; white-space: nowrap; line-height: 1.5; max-width: 203px; text-align: start;"><span class="nodeLabel"><p>componentType</p></span></div></foreignObject></g><g class="label attribute-keys" transform="translate(-88.4140625, 9.375)" style=""><foreignObject width="0" height="0"><div xmlns="http://www.w3.org/1999/xhtml" style="display: table-cell; white-space: nowrap; line-height: 1.5; max-width: 100px; text-align: start;"><span class="nodeLabel"></span></div></foreignObject></g><g class="label attribute-comment" transform="translate(-88.4140625, 9.375)" style=""><foreignObject width="184.84375" height="21"><div xmlns="http://www.w3.org/1999/xhtml" style="display: table-cell; white-space: nowrap; line-height: 1.5; max-width: 249px; text-align: start;"><span class="nodeLabel"><p>marketsgrid-view-state</p></span></div></foreignObject></g><g class="label attribute-type" transform="translate(-298.0546875, 49.125)" style=""><foreignObject width="33.609375" height="21"><div xmlns="http://www.w3.org/1999/xhtml" style="display: table-cell; white-space: nowrap; line-height: 1.5; max-width: 130px; text-align: start;"><span class="nodeLabel"><p>json</p></span></div></foreignObject></g><g class="label attribute-name" transform="translate(-222.6328125, 49.125)" style=""><foreignObject width="58.8125" height="21"><div xmlns="http://www.w3.org/1999/xhtml" style="display: table-cell; white-space: nowrap; line-height: 1.5; max-width: 153px; text-align: start;"><span class="nodeLabel"><p>payload</p></span></div></foreignObject></g><g class="label attribute-keys" transform="translate(-88.4140625, 49.125)" style=""><foreignObject width="0" height="0"><div xmlns="http://www.w3.org/1999/xhtml" style="display: table-cell; white-space: nowrap; line-height: 1.5; max-width: 100px; text-align: start;"><span class="nodeLabel"></span></div></foreignObject></g><g class="label attribute-comment" transform="translate(-88.4140625, 49.125)" style=""><foreignObject width="386.46875" height="21"><div xmlns="http://www.w3.org/1999/xhtml" style="display: table-cell; white-space: nowrap; line-height: 1.5; max-width: 395px; text-align: start;"><span class="nodeLabel"><p>{ liveProviderId, historicalProviderId, mode }</p></span></div></foreignObject></g><g class="divider"><path d="M-310.5546875 -39.75005 L-310.5546875 -39.74995 L310.5546875 -39.74995 L310.5546875 -39.75005" stroke="none" stroke-width="0" fill="#1f2020" fill-rule="evenodd"/><path d="M-310.5546875 -39.75005 C-310.5546875 -39.75002931109318, -310.5546875 -39.750008622186364, -310.5546875 -39.74995 M-310.5546875 -39.75005 C-310.5546875 -39.75001245125106, -310.5546875 -39.749974902502125, -310.5546875 -39.74995 M-310.5546875 -39.74995 C-128.53814078460636 -39.74995, 53.47840593078729 -39.74995, 310.5546875 -39.74995 M-310.5546875 -39.74995 C-81.46125911990285 -39.74995, 147.6321692601943 -39.74995, 310.5546875 -39.74995 M310.5546875 -39.74995 C310.5546875 -39.74997391164818, 310.5546875 -39.74999782329636, 310.5546875 -39.75005 M310.5546875 -39.74995 C310.5546875 -39.74997694048547, 310.5546875 -39.750003880970944, 310.5546875 -39.75005 M310.5546875 -39.75005 C174.11417192113024 -39.75005, 37.67365634226047 -39.75005, -310.5546875 -39.75005 M310.5546875 -39.75005 C107.23307123384797 -39.75005, -96.08854503230407 -39.75005, -310.5546875 -39.75005" stroke="#ccc" stroke-width="1.3" fill="none" stroke-dasharray="0 0"/></g><g class="divider"><path d="M-235.1328625 -39.75 L-235.1327625 -39.75 L-235.1327625 79.5 L-235.1328625 79.5" stroke="none" stroke-width="0" fill="#1f2020" fill-rule="evenodd"/><path d="M-235.1328625 -39.75 C-235.13284070272817 -39.75, -235.13281890545636 -39.75, -235.1327625 -39.75 M-235.1328625 -39.75 C-235.13283082555688 -39.75, -235.13279915111374 -39.75, -235.1327625 -39.75 M-235.1327625 -39.75 C-235.1327625 -2.396427999424624, -235.1327625 34.95714400115075, -235.1327625 79.5 M-235.1327625 -39.75 C-235.1327625 5.462557175544042, -235.1327625 50.675114351088084, -235.1327625 79.5 M-235.1327625 79.5 C-235.1328023929338 79.5, -235.13284228586758 79.5, -235.1328625 79.5 M-235.1327625 79.5 C-235.13279459258555 79.5, -235.1328266851711 79.5, -235.1328625 79.5 M-235.1328625 79.5 C-235.1328625 33.784574386698004, -235.1328625 -11.930851226603991, -235.1328625 -39.75 M-235.1328625 79.5 C-235.1328625 51.06206310609336, -235.1328625 22.62412621218673, -235.1328625 -39.75" stroke="#ccc" stroke-width="1.3" fill="none" stroke-dasharray="0 0"/></g><g class="divider"><path d="M-100.9141125 -39.75 L-100.9140125 -39.75 L-100.9140125 79.5 L-100.9141125 79.5" stroke="none" stroke-width="0" fill="#1f2020" fill-rule="evenodd"/><path d="M-100.9141125 -39.75 C-100.91407646783819 -39.75, -100.91404043567637 -39.75, -100.9140125 -39.75 M-100.9141125 -39.75 C-100.91408150760108 -39.75, -100.91405051520215 -39.75, -100.9140125 -39.75 M-100.9140125 -39.75 C-100.9140125 7.807107953984044, -100.9140125 55.36421590796809, -100.9140125 79.5 M-100.9140125 -39.75 C-100.9140125 -7.088582460549674, -100.9140125 25.572835078900653, -100.9140125 79.5 M-100.9140125 79.5 C-100.91405242334099 79.5, -100.914092346682 79.5, -100.9141125 79.5 M-100.9140125 79.5 C-100.91404303915351 79.5, -100.91407357830703 79.5, -100.9141125 79.5 M-100.9141125 79.5 C-100.9141125 52.33924693500656, -100.9141125 25.17849387001312, -100.9141125 -39.75 M-100.9141125 79.5 C-100.9141125 37.72391561838509, -100.9141125 -4.052168763229815, -100.9141125 -39.75" stroke="#ccc" stroke-width="1.3" fill="none" stroke-dasharray="0 0"/></g><g class="divider"><path d="M-310.5546875 -39.75005 L-310.5546875 -39.74995 L310.5546875 -39.74995 L310.5546875 -39.75005" stroke="none" stroke-width="0" fill="#1f2020" fill-rule="evenodd"/><path d="M-310.5546875 -39.75005 C-310.5546875 -39.75001478747646, -310.5546875 -39.749979574952924, -310.5546875 -39.74995 M-310.5546875 -39.75005 C-310.5546875 -39.75002194427974, -310.5546875 -39.74999388855947, -310.5546875 -39.74995 M-310.5546875 -39.74995 C-79.3038187015535 -39.74995, 151.947050096893 -39.74995, 310.5546875 -39.74995 M-310.5546875 -39.74995 C-88.82706581211093 -39.74995, 132.90055587577814 -39.74995, 310.5546875 -39.74995 M310.5546875 -39.74995 C310.5546875 -39.74998263640716, 310.5546875 -39.75001527281432, 310.5546875 -39.75005 M310.5546875 -39.74995 C310.5546875 -39.749982506636684, 310.5546875 -39.75001501327336, 310.5546875 -39.75005 M310.5546875 -39.75005 C145.71687950672623 -39.75005, -19.12092848654754 -39.75005, -310.5546875 -39.75005 M310.5546875 -39.75005 C73.37913526490308 -39.75005, -163.79641697019383 -39.75005, -310.5546875 -39.75005" stroke="#ccc" stroke-width="1.3" fill="none" stroke-dasharray="0 0"/></g></g><g class="node default" id="my-svg-entity-DATA_PROVIDER-3" data-look="classic" transform="translate(1773.5625, 310.375)"><g class="outer-path" style=""><path d="M-302.15625 -99.375 L302.15625 -99.375 L302.15625 99.375 L-302.15625 99.375" stroke="none" stroke-width="0" fill="#1f2020"/><path d="M-302.15625 -99.375 C-80.06831237892533 -99.375, 142.01962524214935 -99.375, 302.15625 -99.375 M-302.15625 -99.375 C-87.40122778829033 -99.375, 127.35379442341934 -99.375, 302.15625 -99.375 M302.15625 -99.375 C302.15625 -37.01524455691717, 302.15625 25.344510886165665, 302.15625 99.375 M302.15625 -99.375 C302.15625 -54.860396125871, 302.15625 -10.345792251741997, 302.15625 99.375 M302.15625 99.375 C113.64307151247107 99.375, -74.87010697505787 99.375, -302.15625 99.375 M302.15625 99.375 C173.1131134563323 99.375, 44.06997691266457 99.375, -302.15625 99.375 M-302.15625 99.375 C-302.15625 49.950299002619275, -302.15625 0.5255980052385496, -302.15625 -99.375 M-302.15625 99.375 C-302.15625 52.43340187778353, -302.15625 5.491803755567062, -302.15625 -99.375" stroke="#ccc" stroke-width="1.3" fill="none" stroke-dasharray="0 0"/></g><g style="" class="row-rect-odd"><path d="M-302.15625 -59.625 L302.15625 -59.625 L302.15625 -19.875 L-302.15625 -19.875" stroke="none" stroke-width="0" fill="hsl(180, 1.5873015873%, 17.3529411765%)"/><path d="M-302.15625 -59.625 C-113.54710033317329 -59.625, 75.06204933365342 -59.625, 302.15625 -59.625 M-302.15625 -59.625 C-144.54589521298237 -59.625, 13.064459574035254 -59.625, 302.15625 -59.625 M302.15625 -59.625 C302.15625 -50.50478149376, 302.15625 -41.38456298752, 302.15625 -19.875 M302.15625 -59.625 C302.15625 -46.81186549096178, 302.15625 -33.998730981923565, 302.15625 -19.875 M302.15625 -19.875 C110.30122782131937 -19.875, -81.55379435736126 -19.875, -302.15625 -19.875 M302.15625 -19.875 C65.47617870694029 -19.875, -171.20389258611942 -19.875, -302.15625 -19.875 M-302.15625 -19.875 C-302.15625 -32.6540213471326, -302.15625 -45.4330426942652, -302.15625 -59.625 M-302.15625 -19.875 C-302.15625 -30.545921258289738, -302.15625 -41.216842516579476, -302.15625 -59.625" stroke="#ccc" stroke-width="1.3" fill="none" stroke-dasharray="0 0"/></g><g style="" class="row-rect-even"><path d="M-302.15625 -19.875 L302.15625 -19.875 L302.15625 19.875 L-302.15625 19.875" stroke="none" stroke-width="0" fill="hsl(180, 1.5873015873%, 2.3529411765%)"/><path d="M-302.15625 -19.875 C-94.08982586255183 -19.875, 113.97659827489633 -19.875, 302.15625 -19.875 M-302.15625 -19.875 C-117.35910242176686 -19.875, 67.43804515646627 -19.875, 302.15625 -19.875 M302.15625 -19.875 C302.15625 -5.112495248244494, 302.15625 9.650009503511011, 302.15625 19.875 M302.15625 -19.875 C302.15625 -7.372317822668506, 302.15625 5.130364354662987, 302.15625 19.875 M302.15625 19.875 C134.83408665150156 19.875, -32.48807669699687 19.875, -302.15625 19.875 M302.15625 19.875 C115.59289573537723 19.875, -70.97045852924555 19.875, -302.15625 19.875 M-302.15625 19.875 C-302.15625 8.263197799839904, -302.15625 -3.348604400320191, -302.15625 -19.875 M-302.15625 19.875 C-302.15625 9.570310819124133, -302.15625 -0.7343783617517339, -302.15625 -19.875" stroke="#ccc" stroke-width="1.3" fill="none" stroke-dasharray="0 0"/></g><g style="" class="row-rect-odd"><path d="M-302.15625 19.875 L302.15625 19.875 L302.15625 59.625 L-302.15625 59.625" stroke="none" stroke-width="0" fill="hsl(180, 1.5873015873%, 17.3529411765%)"/><path d="M-302.15625 19.875 C-101.49977385124015 19.875, 99.1567022975197 19.875, 302.15625 19.875 M-302.15625 19.875 C-140.54280168508095 19.875, 21.07064662983811 19.875, 302.15625 19.875 M302.15625 19.875 C302.15625 33.04620122915118, 302.15625 46.21740245830237, 302.15625 59.625 M302.15625 19.875 C302.15625 34.984733983622014, 302.15625 50.09446796724403, 302.15625 59.625 M302.15625 59.625 C180.7286985737698 59.625, 59.30114714753958 59.625, -302.15625 59.625 M302.15625 59.625 C93.34662623418862 59.625, -115.46299753162276 59.625, -302.15625 59.625 M-302.15625 59.625 C-302.15625 45.042969285905556, -302.15625 30.46093857181111, -302.15625 19.875 M-302.15625 59.625 C-302.15625 45.95168164405675, -302.15625 32.27836328811349, -302.15625 19.875" stroke="#ccc" stroke-width="1.3" fill="none" stroke-dasharray="0 0"/></g><g style="" class="row-rect-even"><path d="M-302.15625 59.625 L302.15625 59.625 L302.15625 99.375 L-302.15625 99.375" stroke="none" stroke-width="0" fill="hsl(180, 1.5873015873%, 2.3529411765%)"/><path d="M-302.15625 59.625 C-75.50198755110836 59.625, 151.1522748977833 59.625, 302.15625 59.625 M-302.15625 59.625 C-141.58523877401288 59.625, 18.985772451974242 59.625, 302.15625 59.625 M302.15625 59.625 C302.15625 71.49593515055768, 302.15625 83.36687030111537, 302.15625 99.375 M302.15625 59.625 C302.15625 74.58438254109595, 302.15625 89.5437650821919, 302.15625 99.375 M302.15625 99.375 C78.68161849670446 99.375, -144.79301300659108 99.375, -302.15625 99.375 M302.15625 99.375 C117.683002019598 99.375, -66.79024596080399 99.375, -302.15625 99.375 M-302.15625 99.375 C-302.15625 85.49441592148408, -302.15625 71.61383184296815, -302.15625 59.625 M-302.15625 99.375 C-302.15625 90.34343959659645, -302.15625 81.3118791931929, -302.15625 59.625" stroke="#ccc" stroke-width="1.3" fill="none" stroke-dasharray="0 0"/></g><g class="label name" transform="translate(-54.609375, -90)" style=""><foreignObject width="109.21875" height="21"><div xmlns="http://www.w3.org/1999/xhtml" style="display: table-cell; white-space: nowrap; line-height: 1.5; max-width: 232px; text-align: start;"><span class="nodeLabel"><p>DATA_PROVIDER</p></span></div></foreignObject></g><g class="label attribute-type" transform="translate(-289.65625, -50.25)" style=""><foreignObject width="50.421875" height="21"><div xmlns="http://www.w3.org/1999/xhtml" style="display: table-cell; white-space: nowrap; line-height: 1.5; max-width: 136px; text-align: start;"><span class="nodeLabel"><p>string</p></span></div></foreignObject></g><g class="label attribute-name" transform="translate(-214.234375, -50.25)" style=""><foreignObject width="67.21875" height="21"><div xmlns="http://www.w3.org/1999/xhtml" style="display: table-cell; white-space: nowrap; line-height: 1.5; max-width: 155px; text-align: start;"><span class="nodeLabel"><p>configId</p></span></div></foreignObject></g><g class="label attribute-keys" transform="translate(-54.8125, -50.25)" style=""><foreignObject width="0" height="0"><div xmlns="http://www.w3.org/1999/xhtml" style="display: table-cell; white-space: nowrap; line-height: 1.5; max-width: 100px; text-align: start;"><span class="nodeLabel"></span></div></foreignObject></g><g class="label attribute-comment" transform="translate(-54.8125, -50.25)" style=""><foreignObject width="84.015625" height="21"><div xmlns="http://www.w3.org/1999/xhtml" style="display: table-cell; white-space: nowrap; line-height: 1.5; max-width: 170px; text-align: start;"><span class="nodeLabel"><p>providerId</p></span></div></foreignObject></g><g class="label attribute-type" transform="translate(-289.65625, -10.5)" style=""><foreignObject width="50.421875" height="21"><div xmlns="http://www.w3.org/1999/xhtml" style="display: table-cell; white-space: nowrap; line-height: 1.5; max-width: 136px; text-align: start;"><span class="nodeLabel"><p>string</p></span></div></foreignObject></g><g class="label attribute-name" transform="translate(-214.234375, -10.5)" style=""><foreignObject width="109.21875" height="21"><div xmlns="http://www.w3.org/1999/xhtml" style="display: table-cell; white-space: nowrap; line-height: 1.5; max-width: 203px; text-align: start;"><span class="nodeLabel"><p>componentType</p></span></div></foreignObject></g><g class="label attribute-keys" transform="translate(-54.8125, -10.5)" style=""><foreignObject width="0" height="0"><div xmlns="http://www.w3.org/1999/xhtml" style="display: table-cell; white-space: nowrap; line-height: 1.5; max-width: 100px; text-align: start;"><span class="nodeLabel"></span></div></foreignObject></g><g class="label attribute-comment" transform="translate(-54.8125, -10.5)" style=""><foreignObject width="109.21875" height="21"><div xmlns="http://www.w3.org/1999/xhtml" style="display: table-cell; white-space: nowrap; line-height: 1.5; max-width: 232px; text-align: start;"><span class="nodeLabel"><p>DATA_PROVIDER</p></span></div></foreignObject></g><g class="label attribute-type" transform="translate(-289.65625, 29.25)" style=""><foreignObject width="50.421875" height="21"><div xmlns="http://www.w3.org/1999/xhtml" style="display: table-cell; white-space: nowrap; line-height: 1.5; max-width: 136px; text-align: start;"><span class="nodeLabel"><p>string</p></span></div></foreignObject></g><g class="label attribute-name" transform="translate(-214.234375, 29.25)" style=""><foreignObject width="134.421875" height="21"><div xmlns="http://www.w3.org/1999/xhtml" style="display: table-cell; white-space: nowrap; line-height: 1.5; max-width: 228px; text-align: start;"><span class="nodeLabel"><p>componentSubType</p></span></div></foreignObject></g><g class="label attribute-keys" transform="translate(-54.8125, 29.25)" style=""><foreignObject width="0" height="0"><div xmlns="http://www.w3.org/1999/xhtml" style="display: table-cell; white-space: nowrap; line-height: 1.5; max-width: 100px; text-align: start;"><span class="nodeLabel"></span></div></foreignObject></g><g class="label attribute-comment" transform="translate(-54.8125, 29.25)" style=""><foreignObject width="243.640625" height="21"><div xmlns="http://www.w3.org/1999/xhtml" style="display: table-cell; white-space: nowrap; line-height: 1.5; max-width: 282px; text-align: start;"><span class="nodeLabel"><p>stomp | rest | mock | appdata</p></span></div></foreignObject></g><g class="label attribute-type" transform="translate(-289.65625, 69)" style=""><foreignObject width="33.609375" height="21"><div xmlns="http://www.w3.org/1999/xhtml" style="display: table-cell; white-space: nowrap; line-height: 1.5; max-width: 130px; text-align: start;"><span class="nodeLabel"><p>json</p></span></div></foreignObject></g><g class="label attribute-name" transform="translate(-214.234375, 69)" style=""><foreignObject width="58.8125" height="21"><div xmlns="http://www.w3.org/1999/xhtml" style="display: table-cell; white-space: nowrap; line-height: 1.5; max-width: 153px; text-align: start;"><span class="nodeLabel"><p>payload</p></span></div></foreignObject></g><g class="label attribute-keys" transform="translate(-54.8125, 69)" style=""><foreignObject width="0" height="0"><div xmlns="http://www.w3.org/1999/xhtml" style="display: table-cell; white-space: nowrap; line-height: 1.5; max-width: 100px; text-align: start;"><span class="nodeLabel"></span></div></foreignObject></g><g class="label attribute-comment" transform="translate(-54.8125, 69)" style=""><foreignObject width="344.46875" height="21"><div xmlns="http://www.w3.org/1999/xhtml" style="display: table-cell; white-space: nowrap; line-height: 1.5; max-width: 389px; text-align: start;"><span class="nodeLabel"><p>DataProviderConfig (cfg + columns + name)</p></span></div></foreignObject></g><g class="divider"><path d="M-302.15625 -59.62505 L-302.15625 -59.62495 L302.15625 -59.62495 L302.15625 -59.62505" stroke="none" stroke-width="0" fill="#1f2020" fill-rule="evenodd"/><path d="M-302.15625 -59.62505 C-302.15625 -59.625023225038966, -302.15625 -59.62499645007793, -302.15625 -59.62495 M-302.15625 -59.62505 C-302.15625 -59.625017975975204, -302.15625 -59.624985951950414, -302.15625 -59.62495 M-302.15625 -59.62495 C-74.8145499295151 -59.62495, 152.5271501409698 -59.62495, 302.15625 -59.62495 M-302.15625 -59.62495 C-126.1925513500139 -59.62495, 49.7711472999722 -59.62495, 302.15625 -59.62495 M302.15625 -59.62495 C302.15625 -59.62497070695744, 302.15625 -59.624991413914884, 302.15625 -59.62505 M302.15625 -59.62495 C302.15625 -59.624974357914944, 302.15625 -59.62499871582989, 302.15625 -59.62505 M302.15625 -59.62505 C112.73142025308627 -59.62505, -76.69340949382746 -59.62505, -302.15625 -59.62505 M302.15625 -59.62505 C135.68197603383655 -59.62505, -30.792297932326903 -59.62505, -302.15625 -59.62505" stroke="#ccc" stroke-width="1.3" fill="none" stroke-dasharray="0 0"/></g><g class="divider"><path d="M-226.734425 -59.625 L-226.734325 -59.625 L-226.734325 99.375 L-226.734425 99.375" stroke="none" stroke-width="0" fill="#1f2020" fill-rule="evenodd"/><path d="M-226.734425 -59.625 C-226.73439980723637 -59.625, -226.73437461447278 -59.625, -226.734325 -59.625 M-226.734425 -59.625 C-226.7344042956712 -59.625, -226.73438359134238 -59.625, -226.734325 -59.625 M-226.734325 -59.625 C-226.734325 -11.18401465179251, -226.734325 37.25697069641498, -226.734325 99.375 M-226.734325 -59.625 C-226.734325 -12.053362973292792, -226.734325 35.518274053414416, -226.734325 99.375 M-226.734325 99.375 C-226.7343553171872 99.375, -226.73438563437438 99.375, -226.734425 99.375 M-226.734325 99.375 C-226.7343537353555 99.375, -226.734382470711 99.375, -226.734425 99.375 M-226.734425 99.375 C-226.734425 37.380099817270114, -226.734425 -24.61480036545977, -226.734425 -59.625 M-226.734425 99.375 C-226.734425 42.887372644239754, -226.734425 -13.600254711520492, -226.734425 -59.625" stroke="#ccc" stroke-width="1.3" fill="none" stroke-dasharray="0 0"/></g><g class="divider"><path d="M-67.31255 -59.625 L-67.31245 -59.625 L-67.31245 99.375 L-67.31255 99.375" stroke="none" stroke-width="0" fill="#1f2020" fill-rule="evenodd"/><path d="M-67.31255 -59.625 C-67.31252507341874 -59.625, -67.3125001468375 -59.625, -67.31245 -59.625 M-67.31255 -59.625 C-67.31252332088197 -59.625, -67.31249664176393 -59.625, -67.31245 -59.625 M-67.31245 -59.625 C-67.31245 1.494827617489797, -67.31245 62.614655234979594, -67.31245 99.375 M-67.31245 -59.625 C-67.31245 -9.967511350067369, -67.31245 39.68997729986526, -67.31245 99.375 M-67.31245 99.375 C-67.31248492374051 99.375, -67.31251984748103 99.375, -67.31255 99.375 M-67.31245 99.375 C-67.31248492922191 99.375, -67.31251985844384 99.375, -67.31255 99.375 M-67.31255 99.375 C-67.31255 65.19406529193037, -67.31255 31.01313058386073, -67.31255 -59.625 M-67.31255 99.375 C-67.31255 65.56574462194453, -67.31255 31.756489243889078, -67.31255 -59.625" stroke="#ccc" stroke-width="1.3" fill="none" stroke-dasharray="0 0"/></g><g class="divider"><path d="M-302.15625 -59.62505 L-302.15625 -59.62495 L302.15625 -59.62495 L302.15625 -59.62505" stroke="none" stroke-width="0" fill="#1f2020" fill-rule="evenodd"/><path d="M-302.15625 -59.62505 C-302.15625 -59.625013634412205, -302.15625 -59.6249772688244, -302.15625 -59.62495 M-302.15625 -59.62505 C-302.15625 -59.62502861373348, -302.15625 -59.62500722746696, -302.15625 -59.62495 M-302.15625 -59.62495 C-175.21212700082316 -59.62495, -48.26800400164629 -59.62495, 302.15625 -59.62495 M-302.15625 -59.62495 C-72.82055110821514 -59.62495, 156.51514778356972 -59.62495, 302.15625 -59.62495 M302.15625 -59.62495 C302.15625 -59.624978369985776, 302.15625 -59.625006739971546, 302.15625 -59.62505 M302.15625 -59.62495 C302.15625 -59.62498011384955, 302.15625 -59.62501022769911, 302.15625 -59.62505 M302.15625 -59.62505 C89.30139367473407 -59.62505, -123.55346265053186 -59.62505, -302.15625 -59.62505 M302.15625 -59.62505 C66.74541329676575 -59.62505, -168.6654234064685 -59.62505, -302.15625 -59.62505" stroke="#ccc" stroke-width="1.3" fill="none" stroke-dasharray="0 0"/></g></g><g class="node default" id="my-svg-entity-APPDATA-4" data-look="classic" transform="translate(2421.2578125, 310.375)"><g class="outer-path" style=""><path d="M-205.5390625 -79.5 L205.5390625 -79.5 L205.5390625 79.5 L-205.5390625 79.5" stroke="none" stroke-width="0" fill="#1f2020"/><path d="M-205.5390625 -79.5 C-44.165636656553914 -79.5, 117.20778918689217 -79.5, 205.5390625 -79.5 M-205.5390625 -79.5 C-66.17399938750376 -79.5, 73.19106372499249 -79.5, 205.5390625 -79.5 M205.5390625 -79.5 C205.5390625 -17.670561222373642, 205.5390625 44.158877555252715, 205.5390625 79.5 M205.5390625 -79.5 C205.5390625 -40.29581650218154, 205.5390625 -1.091633004363075, 205.5390625 79.5 M205.5390625 79.5 C97.18567587983668 79.5, -11.16771074032664 79.5, -205.5390625 79.5 M205.5390625 79.5 C78.00138299845601 79.5, -49.53629650308798 79.5, -205.5390625 79.5 M-205.5390625 79.5 C-205.5390625 17.170022493360527, -205.5390625 -45.159955013278946, -205.5390625 -79.5 M-205.5390625 79.5 C-205.5390625 43.58006915111739, -205.5390625 7.660138302234785, -205.5390625 -79.5" stroke="#ccc" stroke-width="1.3" fill="none" stroke-dasharray="0 0"/></g><g style="" class="row-rect-odd"><path d="M-205.5390625 -39.75 L205.5390625 -39.75 L205.5390625 0 L-205.5390625 0" stroke="none" stroke-width="0" fill="hsl(180, 1.5873015873%, 17.3529411765%)"/><path d="M-205.5390625 -39.75 C-47.27076646116754 -39.75, 110.99752957766492 -39.75, 205.5390625 -39.75 M-205.5390625 -39.75 C-98.64599244245662 -39.75, 8.247077615086766 -39.75, 205.5390625 -39.75 M205.5390625 -39.75 C205.5390625 -29.220268345268003, 205.5390625 -18.690536690536007, 205.5390625 0 M205.5390625 -39.75 C205.5390625 -25.41129206518599, 205.5390625 -11.072584130371983, 205.5390625 0 M205.5390625 0 C94.66569755624393 0, -16.207667387512146 0, -205.5390625 0 M205.5390625 0 C122.79433235446096 0, 40.049602208921925 0, -205.5390625 0 M-205.5390625 0 C-205.5390625 -14.687476890490546, -205.5390625 -29.37495378098109, -205.5390625 -39.75 M-205.5390625 0 C-205.5390625 -12.821160814607815, -205.5390625 -25.64232162921563, -205.5390625 -39.75" stroke="#ccc" stroke-width="1.3" fill="none" stroke-dasharray="0 0"/></g><g style="" class="row-rect-even"><path d="M-205.5390625 0 L205.5390625 0 L205.5390625 39.75 L-205.5390625 39.75" stroke="none" stroke-width="0" fill="hsl(180, 1.5873015873%, 2.3529411765%)"/><path d="M-205.5390625 0 C-120.39979140033667 0, -35.260520300673335 0, 205.5390625 0 M-205.5390625 0 C-91.31251184274727 0, 22.91403881450546 0, 205.5390625 0 M205.5390625 0 C205.5390625 13.46425315481657, 205.5390625 26.92850630963314, 205.5390625 39.75 M205.5390625 0 C205.5390625 9.689930286855928, 205.5390625 19.379860573711856, 205.5390625 39.75 M205.5390625 39.75 C67.05435446264238 39.75, -71.43035357471524 39.75, -205.5390625 39.75 M205.5390625 39.75 C60.04897725680897 39.75, -85.44110798638206 39.75, -205.5390625 39.75 M-205.5390625 39.75 C-205.5390625 26.998358568481265, -205.5390625 14.246717136962527, -205.5390625 0 M-205.5390625 39.75 C-205.5390625 24.280924042698132, -205.5390625 8.811848085396267, -205.5390625 0" stroke="#ccc" stroke-width="1.3" fill="none" stroke-dasharray="0 0"/></g><g style="" class="row-rect-odd"><path d="M-205.5390625 39.75 L205.5390625 39.75 L205.5390625 79.5 L-205.5390625 79.5" stroke="none" stroke-width="0" fill="hsl(180, 1.5873015873%, 17.3529411765%)"/><path d="M-205.5390625 39.75 C-116.52538771542844 39.75, -27.511712930856874 39.75, 205.5390625 39.75 M-205.5390625 39.75 C-85.93495656223782 39.75, 33.66914937552437 39.75, 205.5390625 39.75 M205.5390625 39.75 C205.5390625 50.6698642769848, 205.5390625 61.58972855396959, 205.5390625 79.5 M205.5390625 39.75 C205.5390625 47.848841245229835, 205.5390625 55.94768249045967, 205.5390625 79.5 M205.5390625 79.5 C114.34337934841008 79.5, 23.147696196820164 79.5, -205.5390625 79.5 M205.5390625 79.5 C73.02085934304668 79.5, -59.49734381390664 79.5, -205.5390625 79.5 M-205.5390625 79.5 C-205.5390625 67.5707348733591, -205.5390625 55.6414697467182, -205.5390625 39.75 M-205.5390625 79.5 C-205.5390625 63.98313389014975, -205.5390625 48.4662677802995, -205.5390625 39.75" stroke="#ccc" stroke-width="1.3" fill="none" stroke-dasharray="0 0"/></g><g class="label name" transform="translate(-29.40625, -70.125)" style=""><foreignObject width="58.8125" height="21"><div xmlns="http://www.w3.org/1999/xhtml" style="display: table-cell; white-space: nowrap; line-height: 1.5; max-width: 172px; text-align: start;"><span class="nodeLabel"><p>APPDATA</p></span></div></foreignObject></g><g class="label attribute-type" transform="translate(-193.0390625, -30.375)" style=""><foreignObject width="50.421875" height="21"><div xmlns="http://www.w3.org/1999/xhtml" style="display: table-cell; white-space: nowrap; line-height: 1.5; max-width: 136px; text-align: start;"><span class="nodeLabel"><p>string</p></span></div></foreignObject></g><g class="label attribute-name" transform="translate(-117.6171875, -30.375)" style=""><foreignObject width="67.21875" height="21"><div xmlns="http://www.w3.org/1999/xhtml" style="display: table-cell; white-space: nowrap; line-height: 1.5; max-width: 155px; text-align: start;"><span class="nodeLabel"><p>configId</p></span></div></foreignObject></g><g class="label attribute-keys" transform="translate(16.6015625, -30.375)" style=""><foreignObject width="0" height="0"><div xmlns="http://www.w3.org/1999/xhtml" style="display: table-cell; white-space: nowrap; line-height: 1.5; max-width: 100px; text-align: start;"><span class="nodeLabel"></span></div></foreignObject></g><g class="label attribute-comment" transform="translate(16.6015625, -30.375)" style=""><foreignObject width="176.4375" height="21"><div xmlns="http://www.w3.org/1999/xhtml" style="display: table-cell; white-space: nowrap; line-height: 1.5; max-width: 235px; text-align: start;"><span class="nodeLabel"><p>name (e.g. positions)</p></span></div></foreignObject></g><g class="label attribute-type" transform="translate(-193.0390625, 9.375)" style=""><foreignObject width="50.421875" height="21"><div xmlns="http://www.w3.org/1999/xhtml" style="display: table-cell; white-space: nowrap; line-height: 1.5; max-width: 136px; text-align: start;"><span class="nodeLabel"><p>string</p></span></div></foreignObject></g><g class="label attribute-name" transform="translate(-117.6171875, 9.375)" style=""><foreignObject width="109.21875" height="21"><div xmlns="http://www.w3.org/1999/xhtml" style="display: table-cell; white-space: nowrap; line-height: 1.5; max-width: 203px; text-align: start;"><span class="nodeLabel"><p>componentType</p></span></div></foreignObject></g><g class="label attribute-keys" transform="translate(16.6015625, 9.375)" style=""><foreignObject width="0" height="0"><div xmlns="http://www.w3.org/1999/xhtml" style="display: table-cell; white-space: nowrap; line-height: 1.5; max-width: 100px; text-align: start;"><span class="nodeLabel"></span></div></foreignObject></g><g class="label attribute-comment" transform="translate(16.6015625, 9.375)" style=""><foreignObject width="58.8125" height="21"><div xmlns="http://www.w3.org/1999/xhtml" style="display: table-cell; white-space: nowrap; line-height: 1.5; max-width: 172px; text-align: start;"><span class="nodeLabel"><p>APPDATA</p></span></div></foreignObject></g><g class="label attribute-type" transform="translate(-193.0390625, 49.125)" style=""><foreignObject width="33.609375" height="21"><div xmlns="http://www.w3.org/1999/xhtml" style="display: table-cell; white-space: nowrap; line-height: 1.5; max-width: 130px; text-align: start;"><span class="nodeLabel"><p>json</p></span></div></foreignObject></g><g class="label attribute-name" transform="translate(-117.6171875, 49.125)" style=""><foreignObject width="58.8125" height="21"><div xmlns="http://www.w3.org/1999/xhtml" style="display: table-cell; white-space: nowrap; line-height: 1.5; max-width: 153px; text-align: start;"><span class="nodeLabel"><p>payload</p></span></div></foreignObject></g><g class="label attribute-keys" transform="translate(16.6015625, 49.125)" style=""><foreignObject width="0" height="0"><div xmlns="http://www.w3.org/1999/xhtml" style="display: table-cell; white-space: nowrap; line-height: 1.5; max-width: 100px; text-align: start;"><span class="nodeLabel"></span></div></foreignObject></g><g class="label attribute-comment" transform="translate(16.6015625, 49.125)" style=""><foreignObject width="50.421875" height="21"><div xmlns="http://www.w3.org/1999/xhtml" style="display: table-cell; white-space: nowrap; line-height: 1.5; max-width: 256px; text-align: start;"><span class="nodeLabel"><p>Record</p></span></div></foreignObject></g><g class="divider"><path d="M-205.5390625 -39.75005 L-205.5390625 -39.74995 L205.5390625 -39.74995 L205.5390625 -39.75005" stroke="none" stroke-width="0" fill="#1f2020" fill-rule="evenodd"/><path d="M-205.5390625 -39.75005 C-205.5390625 -39.75001670541646, -205.5390625 -39.74998341083293, -205.5390625 -39.74995 M-205.5390625 -39.75005 C-205.5390625 -39.75001133337435, -205.5390625 -39.749972666748704, -205.5390625 -39.74995 M-205.5390625 -39.74995 C-121.0726347838565 -39.74995, -36.606207067713 -39.74995, 205.5390625 -39.74995 M-205.5390625 -39.74995 C-101.70971664159345 -39.74995, 2.1196292168131095 -39.74995, 205.5390625 -39.74995 M205.5390625 -39.74995 C205.5390625 -39.749976511879765, 205.5390625 -39.75000302375953, 205.5390625 -39.75005 M205.5390625 -39.74995 C205.5390625 -39.7499876702529, 205.5390625 -39.75002534050579, 205.5390625 -39.75005 M205.5390625 -39.75005 C109.04538953652663 -39.75005, 12.551716573053255 -39.75005, -205.5390625 -39.75005 M205.5390625 -39.75005 C70.07215753575193 -39.75005, -65.39474742849615 -39.75005, -205.5390625 -39.75005" stroke="#ccc" stroke-width="1.3" fill="none" stroke-dasharray="0 0"/></g><g class="divider"><path d="M-130.1172375 -39.75 L-130.1171375 -39.75 L-130.1171375 79.5 L-130.1172375 79.5" stroke="none" stroke-width="0" fill="#1f2020" fill-rule="evenodd"/><path d="M-130.1172375 -39.75 C-130.1172118719827 -39.75, -130.11718624396542 -39.75, -130.1171375 -39.75 M-130.1172375 -39.75 C-130.1172169860941 -39.75, -130.1171964721882 -39.75, -130.1171375 -39.75 M-130.1171375 -39.75 C-130.1171375 -3.6534647959310576, -130.1171375 32.443070408137885, -130.1171375 79.5 M-130.1171375 -39.75 C-130.1171375 -8.154631938188025, -130.1171375 23.44073612362395, -130.1171375 79.5 M-130.1171375 79.5 C-130.1171753323655 79.5, -130.11721316473097 79.5, -130.1172375 79.5 M-130.1171375 79.5 C-130.11716842738775 79.5, -130.11719935477552 79.5, -130.1172375 79.5 M-130.1172375 79.5 C-130.1172375 33.000608963246165, -130.1172375 -13.49878207350767, -130.1172375 -39.75 M-130.1172375 79.5 C-130.1172375 37.8101467403659, -130.1172375 -3.879706519268197, -130.1172375 -39.75" stroke="#ccc" stroke-width="1.3" fill="none" stroke-dasharray="0 0"/></g><g class="divider"><path d="M4.1015125 -39.75 L4.1016125 -39.75 L4.1016125 79.5 L4.1015125 79.5" stroke="none" stroke-width="0" fill="#1f2020" fill-rule="evenodd"/><path d="M4.1015125 -39.75 C4.101546102707124 -39.75, 4.101579705414247 -39.75, 4.1016125 -39.75 M4.1015125 -39.75 C4.101545928330938 -39.75, 4.101579356661877 -39.75, 4.1016125 -39.75 M4.1016125 -39.75 C4.1016125 -6.717502113114556, 4.1016125 26.31499577377089, 4.1016125 79.5 M4.1016125 -39.75 C4.1016125 -3.17629793144188, 4.1016125 33.39740413711624, 4.1016125 79.5 M4.1016125 79.5 C4.10157560645838 79.5, 4.101538712916761 79.5, 4.1015125 79.5 M4.1016125 79.5 C4.101579880417765 79.5, 4.101547260835529 79.5, 4.1015125 79.5 M4.1015125 79.5 C4.1015125 51.09813574915613, 4.1015125 22.696271498312257, 4.1015125 -39.75 M4.1015125 79.5 C4.1015125 49.088693549209296, 4.1015125 18.677387098418592, 4.1015125 -39.75" stroke="#ccc" stroke-width="1.3" fill="none" stroke-dasharray="0 0"/></g><g class="divider"><path d="M-205.5390625 -39.75005 L-205.5390625 -39.74995 L205.5390625 -39.74995 L205.5390625 -39.75005" stroke="none" stroke-width="0" fill="#1f2020" fill-rule="evenodd"/><path d="M-205.5390625 -39.75005 C-205.5390625 -39.75001850051904, -205.5390625 -39.74998700103808, -205.5390625 -39.74995 M-205.5390625 -39.75005 C-205.5390625 -39.75002997068842, -205.5390625 -39.750009941376845, -205.5390625 -39.74995 M-205.5390625 -39.74995 C-44.29959169602202 -39.74995, 116.93987910795596 -39.74995, 205.5390625 -39.74995 M-205.5390625 -39.74995 C-59.78335768881519 -39.74995, 85.97234712236963 -39.74995, 205.5390625 -39.74995 M205.5390625 -39.74995 C205.5390625 -39.749972835496784, 205.5390625 -39.74999567099356, 205.5390625 -39.75005 M205.5390625 -39.74995 C205.5390625 -39.74997016219422, 205.5390625 -39.74999032438844, 205.5390625 -39.75005 M205.5390625 -39.75005 C54.88502498090992 -39.75005, -95.76901253818016 -39.75005, -205.5390625 -39.75005 M205.5390625 -39.75005 C84.13620247820647 -39.75005, -37.26665754358706 -39.75005, -205.5390625 -39.75005" stroke="#ccc" stroke-width="1.3" fill="none" stroke-dasharray="0 0"/></g></g></g></g></g><defs><filter id="my-svg-drop-shadow" height="130%" width="130%"><feDropShadow dx="4" dy="4" stdDeviation="0" flood-opacity="0.06" flood-color="#FFFFFF"/></filter></defs><defs><filter id="my-svg-drop-shadow-small" height="150%" width="150%"><feDropShadow dx="2" dy="2" stdDeviation="0" flood-opacity="0.06" flood-color="#FFFFFF"/></filter></defs><linearGradient id="my-svg-gradient" gradientUnits="objectBoundingBox" x1="0%" y1="0%" x2="100%" y2="0%"><stop offset="0%" stop-color="#cccccc" stop-opacity="1"/><stop offset="100%" stop-color="hsl(180, 0%, 18.3529411765%)" stop-opacity="1"/></linearGradient></svg>