<svg xmlns="http://www.w3.org/2000/svg" width="24" height="24" viewBox="0 0 24 24" fill="none">
  <!-- Table outline -->
  <rect x="2" y="3" width="20" height="18" rx="2" stroke="currentColor" stroke-width="1.5" stroke-linecap="round"/>
  <!-- Header row fill -->
  <rect x="2" y="3" width="20" height="4" rx="2" fill="currentColor" opacity="0.15"/>
  <!-- Header bottom line -->
  <line x1="2" y1="7" x2="22" y2="7" stroke="currentColor" stroke-width="1" opacity="0.5"/>
  <!-- Row separators -->
  <line x1="3" y1="12" x2="21" y2="12" stroke="currentColor" stroke-width="0.5" opacity="0.15"/>
  <line x1="3" y1="16.5" x2="21" y2="16.5" stroke="currentColor" stroke-width="0.5" opacity="0.15"/>
  <!-- Row 1: up arrow (inflow) + data -->
  <line x1="5" y1="11" x2="5" y2="8.5" stroke="currentColor" stroke-width="1" stroke-linecap="round" opacity="1"/>
  <polyline points="3.8,9.7 5,8.5 6.2,9.7" stroke="currentColor" stroke-width="1" stroke-linecap="round" stroke-linejoin="round" fill="none" opacity="1"/>
  <line x1="8" y1="10" x2="14" y2="10" stroke="currentColor" stroke-width="1" stroke-linecap="round" opacity="0.5"/>
  <line x1="16" y1="10" x2="20.5" y2="10" stroke="currentColor" stroke-width="1" stroke-linecap="round" opacity="0.3"/>
  <!-- Row 2: down arrow (outflow) + data -->
  <line x1="5" y1="13" x2="5" y2="15.5" stroke="currentColor" stroke-width="1" stroke-linecap="round" opacity="0.7"/>
  <polyline points="3.8,14.3 5,15.5 6.2,14.3" stroke="currentColor" stroke-width="1" stroke-linecap="round" stroke-linejoin="round" fill="none" opacity="0.7"/>
  <line x1="8" y1="14.5" x2="13" y2="14.5" stroke="currentColor" stroke-width="1" stroke-linecap="round" opacity="0.5"/>
  <line x1="16" y1="14.5" x2="20" y2="14.5" stroke="currentColor" stroke-width="1" stroke-linecap="round" opacity="0.3"/>
  <!-- Row 3: up arrow (inflow) + data -->
  <line x1="5" y1="20.5" x2="5" y2="18" stroke="currentColor" stroke-width="1" stroke-linecap="round" opacity="0.5"/>
  <polyline points="3.8,19.2 5,18 6.2,19.2" stroke="currentColor" stroke-width="1" stroke-linecap="round" stroke-linejoin="round" fill="none" opacity="0.5"/>
  <line x1="8" y1="19" x2="12" y2="19" stroke="currentColor" stroke-width="1" stroke-linecap="round" opacity="0.3"/>
  <line x1="16" y1="19" x2="19.5" y2="19" stroke="currentColor" stroke-width="1" stroke-linecap="round" opacity="0.3"/>
</svg>
