<svg xmlns="http://www.w3.org/2000/svg" width="24" height="24" viewBox="0 0 24 24" fill="none">
  <!-- Table outline -->
  <rect x="2" y="3" width="20" height="18" rx="2" stroke="currentColor" stroke-width="1.5" stroke-linecap="round"/>
  <!-- Header row fill -->
  <rect x="2" y="3" width="20" height="4" rx="2" fill="currentColor" opacity="0.15"/>
  <!-- Header bottom line -->
  <line x1="2" y1="7" x2="22" y2="7" stroke="currentColor" stroke-width="1" opacity="0.5"/>
  <!-- Options payoff curve in header -->
  <path d="M8,6 L11,6 Q12,6 12,5 L12,3.8" stroke="currentColor" stroke-width="0.8" stroke-linecap="round" fill="none" opacity="0.8"/>
  <path d="M12,6 L15,4" stroke="currentColor" stroke-width="0.8" stroke-linecap="round" fill="none" opacity="0.8"/>
  <!-- Row separators -->
  <line x1="3" y1="12" x2="21" y2="12" stroke="currentColor" stroke-width="0.5" opacity="0.15"/>
  <line x1="3" y1="16.5" x2="21" y2="16.5" stroke="currentColor" stroke-width="0.5" opacity="0.15"/>
  <!-- Row 1: delta symbol + data -->
  <text x="4.5" y="10.8" font-size="4.5" font-family="serif" fill="currentColor" opacity="1">&#x3B4;</text>
  <line x1="9" y1="10" x2="13" y2="10" stroke="currentColor" stroke-width="1" stroke-linecap="round" opacity="0.5"/>
  <line x1="15" y1="10" x2="20" y2="10" stroke="currentColor" stroke-width="1" stroke-linecap="round" opacity="0.3"/>
  <!-- Row 2: gamma symbol + data -->
  <text x="4.5" y="15.3" font-size="4.5" font-family="serif" fill="currentColor" opacity="0.5">&#x3B3;</text>
  <line x1="9" y1="14.5" x2="14" y2="14.5" stroke="currentColor" stroke-width="1" stroke-linecap="round" opacity="0.5"/>
  <line x1="15.5" y1="14.5" x2="20" y2="14.5" stroke="currentColor" stroke-width="1" stroke-linecap="round" opacity="0.3"/>
  <!-- Row 3: theta symbol + data -->
  <text x="4.5" y="19.8" font-size="4.5" font-family="serif" fill="currentColor" opacity="0.3">&#x3B8;</text>
  <line x1="9" y1="19" x2="12" y2="19" stroke="currentColor" stroke-width="1" stroke-linecap="round" opacity="0.5"/>
  <line x1="15" y1="19" x2="19" y2="19" stroke="currentColor" stroke-width="1" stroke-linecap="round" opacity="0.3"/>
</svg>
