<svg xmlns="http://www.w3.org/2000/svg" width="24" height="24" viewBox="0 0 24 24" fill="none">
  <!-- Table outline -->
  <rect x="2" y="3" width="20" height="18" rx="2" stroke="currentColor" stroke-width="1.5" stroke-linecap="round"/>
  <!-- Header row fill -->
  <rect x="2" y="3" width="20" height="4" rx="2" fill="currentColor" opacity="0.15"/>
  <!-- Header bottom line -->
  <line x1="2" y1="7" x2="22" y2="7" stroke="currentColor" stroke-width="1" opacity="0.5"/>
  <!-- Hourglass in header -->
  <path d="M9.5,3.5 L12.5,3.5 L11,5.2 L12.5,6.8 L9.5,6.8 L11,5.2 Z" stroke="currentColor" stroke-width="0.7" stroke-linecap="round" stroke-linejoin="round" fill="none" opacity="0.9"/>
  <!-- Row separators -->
  <line x1="3" y1="12" x2="21" y2="12" stroke="currentColor" stroke-width="0.5" opacity="0.15"/>
  <line x1="3" y1="16.5" x2="21" y2="16.5" stroke="currentColor" stroke-width="0.5" opacity="0.15"/>
  <!-- Row 1: spinner circle + data -->
  <circle cx="5" cy="10" r="1.5" stroke="currentColor" stroke-width="0.8" fill="none" opacity="0.3"/>
  <circle cx="5" cy="10" r="1.5" stroke="currentColor" stroke-width="0.8" fill="none" opacity="1" stroke-dasharray="3 6" stroke-linecap="round"/>
  <line x1="8" y1="10" x2="14" y2="10" stroke="currentColor" stroke-width="1" stroke-linecap="round" opacity="0.5"/>
  <line x1="16" y1="10" x2="20" y2="10" stroke="currentColor" stroke-width="1" stroke-linecap="round" opacity="0.3"/>
  <!-- Row 2: spinner circle + data -->
  <circle cx="5" cy="14.5" r="1.5" stroke="currentColor" stroke-width="0.8" fill="none" opacity="0.3"/>
  <circle cx="5" cy="14.5" r="1.5" stroke="currentColor" stroke-width="0.8" fill="none" opacity="0.7" stroke-dasharray="5 4" stroke-linecap="round"/>
  <line x1="8" y1="14.5" x2="13" y2="14.5" stroke="currentColor" stroke-width="1" stroke-linecap="round" opacity="0.5"/>
  <line x1="16" y1="14.5" x2="20" y2="14.5" stroke="currentColor" stroke-width="1" stroke-linecap="round" opacity="0.3"/>
  <!-- Row 3: spinner circle + data -->
  <circle cx="5" cy="19" r="1.5" stroke="currentColor" stroke-width="0.8" fill="none" opacity="0.3"/>
  <circle cx="5" cy="19" r="1.5" stroke="currentColor" stroke-width="0.8" fill="none" opacity="0.5" stroke-dasharray="2 7" stroke-linecap="round"/>
  <line x1="8" y1="19" x2="12" y2="19" stroke="currentColor" stroke-width="1" stroke-linecap="round" opacity="0.5"/>
  <line x1="16" y1="19" x2="19" y2="19" stroke="currentColor" stroke-width="1" stroke-linecap="round" opacity="0.3"/>
</svg>
