<svg xmlns="http://www.w3.org/2000/svg" width="24" height="24" viewBox="0 0 24 24" fill="none">
  <!-- Table outline -->
  <rect x="2" y="3" width="20" height="18" rx="2" stroke="currentColor" stroke-width="1.5" stroke-linecap="round"/>
  <!-- Header row fill -->
  <rect x="2" y="3" width="20" height="4" rx="2" fill="currentColor" opacity="0.15"/>
  <!-- Header bottom line -->
  <line x1="2" y1="7" x2="22" y2="7" stroke="currentColor" stroke-width="1" opacity="0.5"/>
  <!-- Row separators -->
  <line x1="3" y1="12" x2="21" y2="12" stroke="currentColor" stroke-width="0.5" opacity="0.15"/>
  <line x1="3" y1="16.5" x2="21" y2="16.5" stroke="currentColor" stroke-width="0.5" opacity="0.15"/>
  <!-- Row 1: sparkline (uptrend) + P&L value -->
  <polyline points="4,11 5.5,9.5 7,10.5 8.5,8.5 10,9 11.5,8" stroke="currentColor" stroke-width="0.8" stroke-linecap="round" stroke-linejoin="round" fill="none" opacity="1"/>
  <line x1="14" y1="10" x2="17" y2="10" stroke="currentColor" stroke-width="1" stroke-linecap="round" opacity="0.5"/>
  <line x1="18.5" y1="10" x2="20.5" y2="10" stroke="currentColor" stroke-width="1" stroke-linecap="round" opacity="0.3"/>
  <!-- Row 2: sparkline (downtrend) + P&L value -->
  <polyline points="4,13 5.5,14 7,13.5 8.5,15 10,14.5 11.5,16" stroke="currentColor" stroke-width="0.8" stroke-linecap="round" stroke-linejoin="round" fill="none" opacity="0.7"/>
  <line x1="14" y1="14.5" x2="16.5" y2="14.5" stroke="currentColor" stroke-width="1" stroke-linecap="round" opacity="0.5"/>
  <line x1="18.5" y1="14.5" x2="20.5" y2="14.5" stroke="currentColor" stroke-width="1" stroke-linecap="round" opacity="0.3"/>
  <!-- Row 3: sparkline (flat) + P&L value -->
  <polyline points="4,19 5.5,18.5 7,19.2 8.5,18.8 10,19 11.5,18.7" stroke="currentColor" stroke-width="0.8" stroke-linecap="round" stroke-linejoin="round" fill="none" opacity="0.5"/>
  <line x1="14" y1="19" x2="17.5" y2="19" stroke="currentColor" stroke-width="1" stroke-linecap="round" opacity="0.3"/>
  <line x1="18.5" y1="19" x2="20.5" y2="19" stroke="currentColor" stroke-width="1" stroke-linecap="round" opacity="0.3"/>
</svg>
