<svg xmlns="http://www.w3.org/2000/svg" width="24" height="24" viewBox="0 0 24 24" fill="none">
  <!-- Table outline -->
  <rect x="2" y="3" width="20" height="18" rx="2" stroke="currentColor" stroke-width="1.5" stroke-linecap="round"/>
  <!-- Header row fill -->
  <rect x="2" y="3" width="20" height="4" rx="2" fill="currentColor" opacity="0.15"/>
  <!-- Header bottom line -->
  <line x1="2" y1="7" x2="22" y2="7" stroke="currentColor" stroke-width="1" opacity="0.5"/>
  <!-- Warning triangle in header -->
  <path d="M10.5,3.8 L12,6.5 L9,6.5 Z" stroke="currentColor" stroke-width="0.7" stroke-linecap="round" stroke-linejoin="round" fill="none" opacity="0.9"/>
  <line x1="10.5" y1="4.8" x2="10.5" y2="5.6" stroke="currentColor" stroke-width="0.6" stroke-linecap="round" opacity="0.9"/>
  <circle cx="10.5" cy="6" r="0.25" fill="currentColor" opacity="0.9"/>
  <!-- Row separators -->
  <line x1="3" y1="12" x2="21" y2="12" stroke="currentColor" stroke-width="0.5" opacity="0.15"/>
  <line x1="3" y1="16.5" x2="21" y2="16.5" stroke="currentColor" stroke-width="0.5" opacity="0.15"/>
  <!-- Row 1: X mark + data -->
  <line x1="4" y1="9" x2="6" y2="11" stroke="currentColor" stroke-width="1.2" stroke-linecap="round" opacity="1"/>
  <line x1="6" y1="9" x2="4" y2="11" stroke="currentColor" stroke-width="1.2" stroke-linecap="round" opacity="1"/>
  <line x1="8" y1="10" x2="14" y2="10" stroke="currentColor" stroke-width="1" stroke-linecap="round" opacity="0.5"/>
  <line x1="16" y1="10" x2="20" y2="10" stroke="currentColor" stroke-width="1" stroke-linecap="round" opacity="0.3"/>
  <!-- Row 2: X mark + data -->
  <line x1="4" y1="13.5" x2="6" y2="15.5" stroke="currentColor" stroke-width="1.2" stroke-linecap="round" opacity="0.7"/>
  <line x1="6" y1="13.5" x2="4" y2="15.5" stroke="currentColor" stroke-width="1.2" stroke-linecap="round" opacity="0.7"/>
  <line x1="8" y1="14.5" x2="13" y2="14.5" stroke="currentColor" stroke-width="1" stroke-linecap="round" opacity="0.5"/>
  <line x1="16" y1="14.5" x2="20" y2="14.5" stroke="currentColor" stroke-width="1" stroke-linecap="round" opacity="0.3"/>
  <!-- Row 3: X mark + data -->
  <line x1="4" y1="18" x2="6" y2="20" stroke="currentColor" stroke-width="1.2" stroke-linecap="round" opacity="0.5"/>
  <line x1="6" y1="18" x2="4" y2="20" stroke="currentColor" stroke-width="1.2" stroke-linecap="round" opacity="0.5"/>
  <line x1="8" y1="19" x2="12.5" y2="19" stroke="currentColor" stroke-width="1" stroke-linecap="round" opacity="0.3"/>
  <line x1="16" y1="19" x2="19.5" y2="19" stroke="currentColor" stroke-width="1" stroke-linecap="round" opacity="0.3"/>
</svg>
