<svg xmlns="http://www.w3.org/2000/svg" width="24" height="24" viewBox="0 0 24 24" fill="none">
  <!-- Table outline -->
  <rect x="2" y="3" width="20" height="18" rx="2" stroke="currentColor" stroke-width="1.5" stroke-linecap="round"/>
  <!-- Header row fill -->
  <rect x="2" y="3" width="20" height="4" rx="2" fill="currentColor" opacity="0.15"/>
  <!-- Header bottom line -->
  <line x1="2" y1="7" x2="22" y2="7" stroke="currentColor" stroke-width="1" opacity="0.5"/>
  <!-- Column dividers -->
  <line x1="8" y1="7" x2="8" y2="21" stroke="currentColor" stroke-width="1" opacity="0.3"/>
  <line x1="14" y1="7" x2="14" y2="21" stroke="currentColor" stroke-width="1" opacity="0.3"/>
  <line x1="19" y1="7" x2="19" y2="21" stroke="currentColor" stroke-width="1" opacity="0.3"/>
  <!-- Row 1 data lines -->
  <line x1="4" y1="10" x2="7" y2="10" stroke="currentColor" stroke-width="1" stroke-linecap="round"/>
  <line x1="9.5" y1="10" x2="12.5" y2="10" stroke="currentColor" stroke-width="1" stroke-linecap="round" opacity="0.5"/>
  <line x1="15.5" y1="10" x2="17.5" y2="10" stroke="currentColor" stroke-width="1" stroke-linecap="round" opacity="0.5"/>
  <!-- Row 2 data lines -->
  <line x1="4" y1="14" x2="7" y2="14" stroke="currentColor" stroke-width="1" stroke-linecap="round"/>
  <line x1="9.5" y1="14" x2="13" y2="14" stroke="currentColor" stroke-width="1" stroke-linecap="round" opacity="0.5"/>
  <line x1="15.5" y1="14" x2="18" y2="14" stroke="currentColor" stroke-width="1" stroke-linecap="round" opacity="0.5"/>
  <!-- Row 3 data lines -->
  <line x1="4" y1="18" x2="6.5" y2="18" stroke="currentColor" stroke-width="1" stroke-linecap="round"/>
  <line x1="9.5" y1="18" x2="12" y2="18" stroke="currentColor" stroke-width="1" stroke-linecap="round" opacity="0.5"/>
  <line x1="15.5" y1="18" x2="17" y2="18" stroke="currentColor" stroke-width="1" stroke-linecap="round" opacity="0.5"/>
  <!-- Row separators -->
  <line x1="3" y1="12" x2="21" y2="12" stroke="currentColor" stroke-width="0.5" opacity="0.15"/>
  <line x1="3" y1="16" x2="21" y2="16" stroke="currentColor" stroke-width="0.5" opacity="0.15"/>
</svg>
