<svg xmlns="http://www.w3.org/2000/svg" width="24" height="24" viewBox="0 0 24 24" fill="none">
  <!-- Table outline -->
  <rect x="2" y="3" width="20" height="18" rx="2" stroke="currentColor" stroke-width="1.5" stroke-linecap="round"/>
  <!-- Header row fill -->
  <rect x="2" y="3" width="20" height="4" rx="2" fill="currentColor" opacity="0.15"/>
  <!-- Header bottom line -->
  <line x1="2" y1="7" x2="22" y2="7" stroke="currentColor" stroke-width="1" opacity="0.5"/>
  <!-- Lightning bolt in header -->
  <polyline points="11,3.5 10,5.2 11.5,5.2 10.5,7" stroke="currentColor" stroke-width="0.8" stroke-linecap="round" stroke-linejoin="round" fill="none" opacity="0.9"/>
  <!-- Row separators -->
  <line x1="3" y1="12" x2="21" y2="12" stroke="currentColor" stroke-width="0.5" opacity="0.15"/>
  <line x1="3" y1="16.5" x2="21" y2="16.5" stroke="currentColor" stroke-width="0.5" opacity="0.15"/>
  <!-- Row 1: timestamp text + checkmark -->
  <text x="4" y="10.5" font-size="3" font-family="sans-serif" fill="currentColor" opacity="0.7">09:31</text>
  <line x1="12" y1="10" x2="16" y2="10" stroke="currentColor" stroke-width="1" stroke-linecap="round" opacity="0.5"/>
  <polyline points="18,10.5 19,11.5 21,9" stroke="currentColor" stroke-width="1" stroke-linecap="round" stroke-linejoin="round" fill="none" opacity="1"/>
  <!-- Row 2: timestamp text + checkmark -->
  <text x="4" y="15" font-size="3" font-family="sans-serif" fill="currentColor" opacity="0.5">10:45</text>
  <line x1="12" y1="14.5" x2="15.5" y2="14.5" stroke="currentColor" stroke-width="1" stroke-linecap="round" opacity="0.5"/>
  <polyline points="18,15 19,16 21,13.5" stroke="currentColor" stroke-width="1" stroke-linecap="round" stroke-linejoin="round" fill="none" opacity="0.7"/>
  <!-- Row 3: timestamp text + checkmark -->
  <text x="4" y="19.5" font-size="3" font-family="sans-serif" fill="currentColor" opacity="0.3">14:22</text>
  <line x1="12" y1="19" x2="16.5" y2="19" stroke="currentColor" stroke-width="1" stroke-linecap="round" opacity="0.3"/>
  <polyline points="18,19.5 19,20.5 21,18" stroke="currentColor" stroke-width="1" stroke-linecap="round" stroke-linejoin="round" fill="none" opacity="0.5"/>
</svg>
