<svg xmlns="http://www.w3.org/2000/svg" width="24" height="24" viewBox="0 0 24 24" fill="none">
  <!-- Outer gear/cog shape -->
  <path d="M12 1.5 L13.5 3.5 L16 3 L17 5.2 L19.5 5.5 L19.5 8 L21.5 9.5 L20.5 11.5 L22 13.5 L20.2 15 L21 17.3 L18.8 18 L18.5 20.5 L16 20.2 L14.5 22 L12.5 20.8 L10 22 L8.5 20.2 L6 20.5 L5.5 18 L3 17.3 L3.8 15 L2 13.5 L3.5 11.5 L2.5 9.5 L4.5 8 L4.5 5.5 L7 5.2 L8 3 L10.5 3.5 L12 1.5Z" stroke="currentColor" stroke-width="1.5" stroke-linejoin="round"/>
  <!-- Inner circle -->
  <circle cx="12" cy="12" r="3.5" stroke="currentColor" stroke-width="1.5"/>
</svg>
